<svg xmlns="http://www.w3.org/2000/svg" viewBox="0 0 1000 557">
	<g fill="none" fill-rule="evenodd">
		<path fill="#FF201B" d="M0 0h1000v557H0z"/>
		<path fill="#FFF" fill-rule="nonzero" d="M445.88 465.44c.46-.06.92-.06 1.38-.06h2.91a128.83 128.83 0 008.73-.43l.73-.05 1.48-.08 2.3-.07c.78-.03 1.55-.09 2.32-.15l.35-.02.55-.04 1.11-.07c.82-.05 1.63-.12 2.43-.18l.48-.04 1.6-.11a125 125 0 004.66-.54l1.88-.26.75-.11 1.76-.25.3-.05 1.97-.25.97-.13 2.9-.38c3.23-.46 5.91-.85 8.65-1.39l.72-.15.72-.15.8-.17 2.12-.44.3-.07.26-.05.3-.08c1.19-.25 2.36-.5 3.53-.79l.84-.18.32-.1.19-.01a65.3 65.3 0 012.8-.6c.89-.18 1.77-.34 2.65-.49l.37-.06 1.47-.25c3.71-.68 6.51-1.27 9.07-1.94a114.9 114.9 0 0012.69-3.9l.62-.22.26-.1.46-.17.75-.27.85-.3c.48-.19.97-.36 1.46-.53l1.02-.36.72-.25.74-.26.21-.07c1.15-.4 2.3-.81 3.43-1.24a71.7 71.7 0 012.96-1.05l.96-.3.24-.08c.7-.21 1.39-.43 2.08-.67.18-.04.37-.14.57-.3l.12 2.08c.23 1.84.49 3.69.74 5.53l.1.68.22 1.6.03.26.18-.1-.05.2-.05.3c.1.9.2 1.8.33 2.71l.1.76.16 1.29.18 1.38.2 1.59.04.28a157.1 157.1 0 00.62 4.57l.02.16.16 1.17.13 1c.32 2.55.6 5.1.87 7.67a160.86 160.86 0 00.7 6l.03.15.02.23.15 1.12.45 4.35.02.26a186.65 186.65 0 001.1 9.3l.15 1.1c.05.5.12 1 .2 1.48l.05.2c.04.51.1.92.17 1.34l.07.52.16 1.1c.3 2.34.5 4.34.59 6.14.03.48.08.95.12 1.41l.05.49.06.7.03.34.09.99c.13 1.08.3 2.17.46 3.25.08.63.13 1.25.17 1.88l.08.76c-.56.1-1.28.35-2.21.75-.88.38-1.74.77-2.6 1.19l-.17.06-.18.06c-2.24.73-4.54 1.38-6.76 2l-.37.11-.15.05-.28.08-.14.04-.2.06-.52.14-1.87.52c-1.72.49-3.44.95-5.16 1.4l-.51.14-1.78.46-.38.1-.68.17c-.66.16-1.33.34-2 .52l-1.98.53-.6.16-2.47.65c-1.5.37-3.2.72-5.25 1.07-2.46.48-5 .83-7.15 1.12l-2.73.35-.83.1-5.4.72c-2.07.3-3.82.5-5.38.61a171.89 171.89 0 01-8.36.54l-2.4.1c-2.09.12-3.9.2-5.55.23-3.4.07-6.8.07-10.2.08H474.02c-1 0-2 0-3-.04a89.86 89.86 0 01-5.14-.27 363.3 363.3 0 01-5.82-.5 97.31 97.31 0 01-7.36-.86l-.35-.06-.4-.06-.16-.03c-.9-.15-1.6-.26-2.32-.36-1.7-.25-3.38-.51-5.07-.78l-.15-.02a83.9 83.9 0 01-3.45-.63l-1.5-.29-1.03-.2-1.37-.25c-.75-.14-1.5-.29-2.25-.47l-.37-.1-1.43-.34-.55-.13-.21-.05-.63-.14-2.22-.53c-.84-.2-1.7-.44-2.53-.68l-.49-.14-.16-.05-.16-.04a132.62 132.62 0 01-3.7-1.02l-.34-.1c-.7-.2-1.4-.4-2.1-.57l-.67-.18-.16-.04-.17-.05-.14-.04c-1.15-.3-2.57-.7-3.79-1.15a292.26 292.26 0 01-7.25-2.89l-.25-.12c-.58-.25-1.15-.51-1.73-.78l.05-.28c.09-.9.18-1.8.3-2.69.1-.74.17-1.5.24-2.23l.1-1.01c.08-.62.14-1.23.19-1.86.03-.5.08-.99.14-1.5l.05-.48.07-.77.08-1.02.01-.27a61 61 0 01.07-.92l.14-1.46.1-1.04.07-.74.16-1.57c.15-1.3.28-2.77.4-4.48.07-1.16.2-2.32.32-3.49l.16-1.56.37-3.47.01-.15a808 808 0 00.89-8.8l.02-.35.05-.57.05-.66.06-.75.14-1.57c.1-1.18.23-2.36.37-3.53l.2-1.62c.13-1.22.24-2.44.34-3.66l.2-2.03.02-.18.2-2.18c.05.16.2.2.41.24.28.02.56.06.82.09.66.09 1.3.16 1.95.2.56.02 1.13.08 1.68.14l.27.02c.51.06 1.03.06 1.56.07h.54l2.02.09.97.06 1 .06.9.01h8.67l3.3.01c3.16 0 6.9-.03 10.63-.23m61.4-60.63c1.87-.29 3.55-.55 5.3-.87l1.07-.22.8-.15 2.4-.46.44-.09a90.87 90.87 0 005.65-1.21l.42-.12.31-.08.62-.12.2-.06 1.04-.26c1.25-.26 2.5-.59 3.74-.91l.17-.05.16-.05.2-.05 2.22-.6 2.21-.58 1.32-.35c1-.25 1.98-.51 2.97-.8l.4-.11a37.34 37.34 0 002.72-.83l.16-.06.4-.13.49-.18.77-.27.77-.29.33-.11 2.13-.76-.02.2.02.33c.2 2.15.45 4.3.7 6.43l.1.77c.17 1.43.33 2.84.47 4.27.18 1.79.37 3.57.59 5.35l.06.51c.25 1.95.49 3.87.68 5.8.19 1.87.37 3.66.59 5.44l.05.39.04.38c-.37.08-.68.2-.96.33a.87.87 0 00-.45.16l-.17.1-.16.07-.8.33-.2.07c-.36.12-.61.28-.8.5a81.98 81.98 0 01-8.31 2.52c-1.24.3-2.46.62-3.7.94l-.22.06-.25.07-.84.22-1.05.28-1.04.27-1.34.35-4.45 1.15-.88.23-.35.09-.15.04-.21.06-.17.04c-.8.21-1.66.44-2.52.59-2.33.5-4.68.91-7.08 1.32l-1.87.33-2.92.55c-1.59.32-3.47.68-5.34.95l-1 .15a65.28 65.28 0 00-5.65 1.06l-1.78.33c-4.99 1.01-10.16 1.9-15.36 2.62-.07 0-.15.03-.34.1-.45.01-.85.07-1.25.13l-.79.13-.27.04-.88.13-.57.07-.4.1-.8.06-.9.14-.5.08-.64.1-3.46.5-.76.08a97.9 97.9 0 01-5.04.46l-.53.03c-2.02.17-4.13.4-6.46.71-1.9.25-3.94.38-5.7.47l-.84.06-.87.06-.99.06c-3.06.25-5.98.29-8.67.3H434.5c-1.38 0-2.61.01-3.8.08-2.73.16-5.51.18-8.6.19h-2c-.58 0-1.18 0-1.76-.04l-1.92-.14-.33-.02-.32-.01-.18-.01c-.26-.01-.5-.02-.75-.05-.36-.03-.72-.1-1.11-.22a.97.97 0 00-.43-.12c-.17 0-.37.06-.58.16l.1-.11.08-.7c.09-1.25.17-2.5.27-3.74.24-3.07.55-6.08.89-9.4l.2-2.04c.24-2.2.42-4.4.6-6.6l.04-.31.01-.22.04-.39.15-1.73.15-1.75c.15-1.57.28-3.14.4-4.7l.17-.07c.26.09.6.18.96.25l.48.1c.39.07.78.15 1.18.2l.81.15c.42.1.85.15 1.27.2.83.09 1.4.13 1.94.13h5.73c2.16 0 4.5-.02 6.93-.17l.7-.06 1.17-.08.73-.04h.37l.88-.04c.5-.02 1-.06 1.48-.1l.57-.04c.56-.05 1.1-.07 1.65-.1l.53-.01 2.12-.12c.51-.04 1.02-.05 1.53-.06h.3l.32-.01c1.87-.1 3.26-.18 4.36-.27l1.12-.15.3-.04.27-.04.42-.05.43-.06c1.14-.13 2.29-.27 3.43-.37 1.51-.14 3.04-.31 4.53-.51l1.37-.16.4-.04.52-.06c.58-.06 1.14-.12 1.71-.2l.93-.13.93-.14.55-.09 1.45-.22 1.78-.29c1.95-.31 3.9-.62 5.86-.9l.44-.05 1-.14.66-.08.62-.08.7-.1.63-.08 1.98-.3.22-.03.75-.11.61-.1.48-.08 1.34-.2 5.72-.7 2.41-.28c1.97-.26 4.1-.62 5.23-.82l.37-.06.2-.03.28-.04.2-.03a186.36 186.36 0 015.26-.88l.14-.04v.03l.2-.03zm-59.52-39.68l.18-.02a98.68 98.68 0 013.51-.2h1.35l.85-.01a103.65 103.65 0 006.96-.3l1.96-.13c.71-.05 1.44-.1 2.15-.17l.88-.07c.45-.02.9-.06 1.32-.1a135.4 135.4 0 006.16-.82l.67-.1a98.63 98.63 0 013.2-.5l1.69-.22.2-.03c2.24-.32 4.5-.7 6.48-1.02l.76-.12 1.35-.23 1.38-.23c.94-.14 1.87-.3 2.8-.47l1.12-.21.9-.17 1.08-.2 1.16-.23c2-.4 3.17-.67 4.18-.95.56-.13 1.12-.28 1.67-.43.89-.24 1.78-.47 2.65-.64 1-.26 2.02-.45 3.02-.65l.26-.05.3-.06.35-.07.25-.05.37-.07c1.24-.25 2.47-.52 3.7-.8 5.6-1.24 10.9-3.16 16.01-5.03l.23-.08.26-.1c.52-.2 1.05-.38 1.6-.56l.46-.15.93-.32c.62-.22 1.22-.46 1.84-.7l.15-.06.48-.19.18-.07.66-.26.68-.28.26-.1c.63-.25 1.36-.54 2.07-.76 1.1-.32 2.2-.66 3.28-1.02.1-.03.2-.08.33-.14l-.13.22.1 1.23.17 1.75c.1 1 .2 1.99.28 2.99l.1 1.03.12 1.43c.15 1.45.28 2.9.42 4.36l.16 1.76c.18 1.85.4 3.7.62 5.53.25 2.02.46 4.03.67 6.05l.1.9.28 2.83c-.07-.18-.25-.27-.51-.27a51.8 51.8 0 00-2.56.63c-.57.16-1.12.36-1.68.57l-.28.1-.44.17-.18.06-.3.11c-.9.33-1.97.72-3 1.05l-4.25 1.25c-1.1.3-2.2.68-3.14 1.02l-.17.06-.18.06-.68.23-.2.08-.2.06c-1.35.45-2.53.84-3.73 1.15-1.85.43-3.1.7-4.2.89l-.57.11-.28.08-.25.02c-.36.07-.73.13-1.1.18l-1.08.15-1.08.16a126.01 126.01 0 00-7.1 1.23l-.2.04-.79.15c-1.18.24-2.38.48-3.57.7l-1.08.19-.32.06c-1.86.34-3.79.68-5.7.96-1.33.16-2.67.3-4 .44a199.85 199.85 0 00-9.5 1.17c-1.02.15-2.05.39-2.95.6-.31.09-.58.13-.85.18l-.31.06-.26.05c-.76.15-1.52.27-2.28.39a841.5 841.5 0 01-10.16 1.21l-.52.05-2.25.24c-1.47.16-2.92.37-4.37.58l-.34.12-.33-.01-.43.04c-.92.11-1.88.22-2.82.29l-2.1.12-.84.04-1.24.08-.25.01-2.08.15-2.24.17c-1.17.09-2.38.12-3.56.15h-.82l-1.78.1h-.37c-.72.05-1.43.09-2.15.11l-.9.01c-.98 0-1.97-.03-2.96-.07l-.45-.02a258 258 0 00-7.68-.1h-2.24a34.11 34.11 0 01-4.03-.23l-.28-.04-.76-.07-.77-.07.06-.19c.21-1.17.31-2.34.38-3.19l.3-3.55.2-2.6.24-2.76c.22-2.75.44-5.5.7-8.25l.3-2.99.14-1.38.36-3.5.26.16.5.1.58.04.5.05.43.07.2.03a10.9 10.9 0 001.26.14 14.53 14.53 0 011.62.19l.47.01h9.57c1.9 0 3.8 0 5.72-.02 1.38 0 2.74-.03 4.12-.1l1.45-.11.56-.04.2-.03v.01l.4-.03zm27.3-53.78l1.87-.26c1.03-.14 2.05-.25 3.08-.36a113.3 113.3 0 006.45-.88l.2-.03 1.02-.17 1.62-.19.28-.03.46-.05.3-.04.32-.04c.5-.06.99-.12 1.48-.2 1.54-.28 2.97-.58 4.24-.89h.2c1.17-.28 2.3-.46 4.12-.71l.3-.05.22-.03.33-.06.3-.05c1.08-.18 2.18-.36 3.2-.6 1.7-.36 3.08-.72 4.35-1.13l2.87-.9 1.43-.46c.83-.26 1.68-.5 2.54-.72l.32-.1 1.27-.34.43-.12.35-.1.32-.08c1.49-.41 2.34-.66 3.22-.98 2.72-.92 5.45-1.8 8.19-2.69l.89-.29.24-.07c.93-.3 1.92-.6 2.9-1.02.8-.31 1.56-.75 2.34-1.2l.42-.24-.04.04.04.84c.22 1.87.44 3.75.62 5.64.35 3.7.74 7.38 1.13 11.06l.01.15.02.14c.1 1.03.2 2.05.28 3.09l.05.5c.05.74.12 1.48.19 2.21l.21 2.08.07.66.11 1.05.08.9.09.87a.27.27 0 00-.23-.11 182.5 182.5 0 00-1.96.72c-.75.28-1.5.56-2.25.82-1.6.56-2.92 1.03-4.24 1.55l-.67.27-.23.09-.28.1-.2.08-.64.26c-.64.24-1.3.46-1.95.67-.87.28-1.74.53-2.61.78l-.26.08-1.34.38c-1.8.51-3.56 1.25-5.11 1.9l-.44.2c-.83.34-1.66.7-2.5 1.02-1.49.57-2.83 1-4.1 1.33l-4.02.95-.2.03-.56.12-1.3.27-.2.03-.58.12-1.56.31c-.93.2-1.85.4-2.78.62l-.52.11-.89.2c-2.64.6-5.33 1.08-8.47 1.52l-.34.05-.4.07c-1.06.16-2.05.31-3.03.5-1.26.24-2.53.46-3.8.67l-1.43.24c-1.92.32-3.85.64-5.78.92l-.67.1-.74.1-.69.08a67.7 67.7 0 01-4.1.42l-1.18.11-.59.06-.5.05-1.97.2-2.37.34-.92.12-.54.07-.55.07c-1.35.19-2.71.3-4.17.35-.86.04-1.71.08-2.57.14l-.54.03-1.34.07c-2.34.12-4.74.13-7.05.13h-2.31c-1.18 0-2.36 0-3.53.07l-.63.03-1.4.06h-.4a48 48 0 01-1.77-.04l-.7-.02-1.38-.04-.66-.02h-.21c-.42-.01-.82-.02-1.24-.05l-.8-.07-.3-.03a25.4 25.4 0 00-.77-.06l-.46-.03-.24-.02a14.73 14.73 0 01-1.95-.17l-.45-.09c-.6-.1-1.2-.21-1.83-.26l-.61-.1a1.58 1.58 0 00-.46-.1c-.1 0-.22.04-.36.09-.17.02-.33.08-.46.16l.2-1.05.22-1.43c.56-5.37 1.07-10.88 1.48-15.96.11-1.22.24-2.45.37-3.66l.18-1.81c.22-2.1.47-4.18.73-6.27l.06-.5c.02.04.1.05.13.06.5.04.99.1 1.48.16l.22.03c.62.07 1.21.1 1.82.11.58.01 1.15.06 1.73.11l.35.04c.59.06 1.18.11 1.78.14l.53.02c1.2.05 2.4.1 3.6.1h.45c1.23.01 2.45.02 3.67.06l.77.02.31.01.33.02h.32l.33.02h.16c.55 0 1.1-.04 1.64-.08l.38-.03.96-.07 1.15-.09.14-.01 1.74-.13 1.4-.11 1.04-.09 1.91-.14 1.68-.14c.8-.08 1.6-.14 2.4-.2.95-.06 1.91-.17 2.86-.27l.41-.05.32-.04.35-.03a88.2 88.2 0 013.66-.38h.25l.6-.05.99-.08.78-.06a73.44 73.44 0 004.25-.5h.14l.18-.04.17-.02h-.05l2.78-.38m-44.03-50.15h8.23c1.76 0 3.83 0 6.2-.12.67-.04 1.35-.06 2.04-.07h.32l1.86-.07.37-.03.38-.02.37-.03.35-.03.37-.03.35-.02.4-.04a42.32 42.32 0 013.26-.18c.86-.04 1.7-.07 2.56-.15l1.14-.1.57-.05a83.1 83.1 0 012.32-.2c1.36-.1 2.73-.22 4.1-.36.97-.11 1.94-.27 2.9-.43l.45-.08c.3-.05.6-.1.88-.13l1.38-.17.69-.08c.94-.1 1.87-.21 2.8-.33l.16-.03 3.34-.5.17-.02.73-.12 1.74-.26.83-.13 1.75-.28c1.49-.24 2.95-.5 4.42-.8.8-.15 1.57-.33 2.36-.52l1.87-.35c3.2-.68 6-1.33 8.59-1.98l1.02-.24.82-.2.93-.23.76-.18c1.8-.43 3.6-.86 5.39-1.33l.37-.1.22-.05.22-.05.3-.08c1.14-.29 2.05-.52 2.99-.7.63-.13 1.24-.25 1.87-.36l.27-.05.23-.05a27.2 27.2 0 001.97-.45c.6-.12 1.37-.3 2.12-.58.75-.24 1.5-.5 2.24-.78.8-.29 1.62-.55 2.43-.82l.51-.16 1.17-.38c.89-.3 1.77-.63 2.64-.99.57-.22 1.14-.48 1.7-.76.2 2.77.54 6.12 1.12 11.2.2 1.57.36 3.12.53 4.68l.08.78c.1 1.05.2 1.9.3 2.7l.05.4c.14 1.04.25 2 .35 2.98l.02.2.04.31.06.5.57 5.18.22 1.87c-.03-.15-.17-.23-.4-.23-.25 0-.52.08-.79.22l-1.61.82c-1.1.56-2.1 1.07-3.11 1.52-1.09.42-2.42.94-3.74 1.3l-1.26.32a78.3 78.3 0 01-3.06.77l-1.38.27-.7.14-.19.04-.81.16-.2.04-.63.14-.3.1c-1.32.27-2.86.6-4.4 1-1.96.48-3.93.98-5.9 1.5l-.82.2-1.99.53-1.2.32-.34.08-.34.09c-.8.21-1.6.42-2.4.6l-.75.18-.73.16-.65.15-.67.16-.19.04-.58.13-.67.15-1.83.4-.43.07-3.64.83-.7.17-.76.17a65.51 65.51 0 01-8.87 1.55l-.33.1-.54.01-.72.1-.27.04-.23.03-2.09.28c-1.4.18-2.81.35-4.23.5-.94.1-1.9.16-2.85.22l-.5.04-1.09.07-.74.06-.29.03c-2.27.18-4.83.37-7.4.63-.74.08-1.48.13-2.23.16l-.62.04-.47.02-1.09.06c-.67.04-1.34.1-2 .15-.72.06-1.45.11-2.17.15l-1.13.07-.31.02a51.81 51.81 0 01-4.89.13l-1.39.06-.75.03a56.42 56.42 0 01-3.61.05l-.73-.04c-.32-.02-.65-.04-.97-.04l-.85-.02-1.05-.03-1.74-.1-.57-.01a31.38 31.38 0 01-2.96-.2l-.3-.03-.29-.02-.29-.02-.28-.02.14-.33a197.68 197.68 0 01.95-10.28l.03-.28c.57-4.06 1.07-7.75 1.5-11.71.2-1.9.36-3.89.48-5.42.07-1.1.17-2.18.26-3.28.3.13.62.14.9.14zm25.08-47.7l2.27-.06h.19c.9-.02 1.69-.04 2.48-.09l.53-.03c1.29-.08 2.57-.15 3.85-.28l1.3-.13.55-.06 2.4-.26c1.59-.19 3.18-.39 4.77-.63 1.39-.21 2.77-.41 4.16-.6a78.34 78.34 0 008.73-1.74l.83-.21.15-.04.6-.15a184.86 184.86 0 009.6-2.64l.57-.17 1.3-.4c1.36-.4 2.7-.82 4.05-1.26l.72-.22.36-.12.55-.18a78.93 78.93 0 004.36-1.48l.33-.12.56-.22 1.64-.6a89.7 89.7 0 013.74-1.25l.31-.1.7-.22c.81-.23 2.31-.66 3.58-1.26 1.7-.78 3.3-1.64 5.07-2.6.16-.1.27-.17.37-.26l.19-.11.2-.1a.6.6 0 00-.12.14l.03.93.19 2.44c.12 1.73.28 3.75.49 5.74l.14 1.12.02.18.04.26.03.26.07.62.34 3 .27 2.41.37 3.27c.15 1.41.25 2.8.34 4.17l.11 1.54.11 1.37.1 1.15.01.26-.14.01c-.29 0-.54.12-.78.24l-1.22.57-.2.1-.23.1-1 .47c-.81.31-1.65.55-2.65.84l-1.26.37-.34.1c-1.34.4-2.68.8-4 1.24l-.5.16-.3.1-.16.04-.17.05-2.91.92c-1.36.4-2.8.77-4.26 1.14h-.19c-1.4.38-2.8.7-4.19 1.02l-1.4.3c-.99.2-1.97.42-2.95.67-.77.16-1.52.37-2.28.58l-.32.1-.15.04-.13.04-.3.08-1.06.31c-1.42.4-2.84.8-4.27 1.14-.95.23-1.91.49-2.87.75l-.16.04a80.99 80.99 0 01-5.67 1.36c-3.1.66-5.7 1.19-8.57 1.57l-.2.03-.2.03-1.77.2-2.52.3c-.86.1-1.71.23-2.56.37l-.58.1-1.37.2-1 .14-2.28.32a122.46 122.46 0 01-8.54.68c-.72.03-1.44.06-2.17.14l-.96.08-.33.02-.74.06c-1.35.12-2.8.18-4.31.18-1.12.02-2.25.02-3.38.02h-8.19l-.42-.01h-.44c-.2 0-.37 0-.56.02-.35.06-.62.12-.85.28l.07-.11a250.12 250.12 0 01.56-6.72c.14-1.46.31-2.9.49-4.35l.33-2.25.29-1.96c.33-2.14.65-4.27.93-6.4l-.18.06.1-.29.14-.48c.2-1.36.34-2.71.47-4.03l.03-.28.25-2.2.03-.25.03-.28.1-.8c.15.24.34.37.57.42l.37.07.33.05.26.04.16.03.17.02.54.1c.94.15 1.55.25 2.2.29.63.03 1.26.1 1.9.17.7.08 1.4.1 2.1.12.66 0 1.32.03 1.99.07l.43.01h.16l.6.02.97.04c.68 0 1.34.02 2 .05.8.04 1.56.07 2.32.07 1.25 0 2.47-.06 3.74-.11m-.96-56.44c1.46 0 2.93 0 4.39-.02 1.02 0 2.03-.03 3.04-.06l.99-.02c1.23-.02 2.46-.05 3.69-.05h1.08l1.07.03 1.41.04.63.02h.16l.37.02.94.03h25.55c1.5 0 3 0 4.5.05l.54.02.54.02.52.02.53.03c.49.02.96.02 1.44.02h1.06c1.16 0 2.3.01 3.45.05.27 0 .53 0 .8.02l.44.03.87.04c.35.02.7.02 1.06.02h2.75c.84 0 1.69 0 2.53-.02 1.35 0 2.73-.05 4.35-.13l.2-.02-.15.41c-.02 1.31-.04 2.66.02 4.12l.08 1.83.02.65.11 2.44.02.25.01.16.01.16.01.2c.08 1.24.18 2.8.36 4.26.17 1.46.38 2.92.6 4.38-.03-.07-.1-.08-.15-.08-.17 0-.3.05-.51.16l-1.14.54-.36.17-.3.15-.94.44a36 36 0 00-1.1.47l-.3.13-.41.18-.52.23-.3.12-.38.16-.6.24-.23.1-.44.17-2.03.82a41.72 41.72 0 01-3.6 1.2l-.58.17-1.46.4-.18.05c-.79.21-1.57.42-2.35.66l-1.4.43-2.17.65-.64.2c-1.17.36-2.42.7-4.04 1.12-.65.16-1.3.34-1.94.52l-2.31.6c-1.14.28-2.3.5-3.45.74l-.49.09-.26.05-.21.05c-1.33.3-2.65.6-3.97.94l-1.07.24-.2.04-.17.05-.19.03c-.77.18-1.54.36-2.32.49l-2.23.37-.7.12-1.4.22-1.1.19-.17.03-.73.1-.8.14-.15.03c-.36.07-.72.13-1.1.18l-.6.09a97.5 97.5 0 00-3.5.55l-.22.1h-.11c-.24 0-.3.02-.35.05l-1.08.1c-.93.09-1.88.18-2.83.24l-.21.02c-.51.03-.94.06-1.38.07l-.68.05-1.8.12c-1.33.12-2.76.24-4.22.26h-.58a45.5 45.5 0 00-4.64.26l-.42.02-.44.03a59.26 59.26 0 01-5.2.16h-.72c-.2 0-.41.02-.62.04h-.27l-.19.01-.17.02-.24.02a32.88 32.88 0 01-1.9.05h-.28l-1.86.01h-.64c-.2-.07-.38-.1-.54-.1-.3 0-.49.02-.7.05l.2-.82.2-2.03a191.3 191.3 0 00.57-7.38l.07-1.25.16-2.71.08-1.39.08-1.36c.11-1.79.25-3.59.39-5.38l.14-1.85.13-1.85.04-.53.04-.52c.08-1.07.15-2.13.2-3.18.06-1.23.05-2.37.03-3.47v-.2l-.01-.6c0-.26-.07-.5-.18-.72l.11.14.3.04c.66 0 1.32-.02 1.99-.06l.8-.05c.96-.07 2.23-.15 3.51-.15l1.42-.01H455.15zm60.9-28.7c.5-.02.98-.06 1.47-.1l.25-.01.19-.02c.67-.05 1.34-.1 2-.1l.27.01c.72.02 1.43.03 2.13.07l1.08.07.36.02.37.02.36.03c1.1.05 2.18.07 3.25.07 1.83 0 3.65-.06 5.47-.12.94-.03 1.86-.04 2.8-.04l.92.01h.94c1.47 0 2.93.01 4.38.05l.84.02c.58.02 1.15.04 1.73.04h.17l-.1 1.63.01 1.9.02 1.03c0 1.04.01 2.09-.03 3.13-.06 1.45-.12 2.92-.13 4.38v.64a40.8 40.8 0 01-.13 3.48c-.07.97-.13 1.67-.12 2.4l.01.23v.16a11.81 11.81 0 01-.05 1.49l-.02.17-.03.3c-.07.74-.1 1.49-.12 2.23v.9c0 .49 0 .98-.02 1.46-.59-.13-1.23-.13-1.84-.13h-3.84l-1.75.02h-4.21c-1.16 0-2.3.07-3.23.13l-.57.02-.35.02c-1.22.1-2.51.12-3.95.13h-.22l-.28.01-.27.01-.25.02h-.26l-.25.02-.3.02-.6.03-2.17.04-2.8.02h-3.49l-1.16-.05-.91-.05c-1.34-.04-2.67-.05-4-.06h-2.01l-.41-.01-.41-.01-.44-.03-.84-.04a146.8 146.8 0 00-4.88-.07H473.5c-.8 0-1.6-.02-2.41-.05l-.39-.02h-.2c-.49-.03-.93-.04-1.36-.05h-1.7l-.79-.02c-.7 0-1.4 0-2.11.03l-.55.01c-1.29.05-2.5.08-3.71.09l-5.92.02h-7.41c-1.17 0-2.48.05-4.26.17-1.13.09-2.28.1-3.4.12l-.7.01c-.66 0-1.3.04-1.96.07l-.5.02c-.55.03-1.05.05-1.55.05-1.34.02-2.67.02-4 .02h-.9c-1.06 0-2.12 0-3.16-.06l-.62-.03c-.3 0-.54.07-.78.22-.01-.08-.12-.11-.14-.12a4 4 0 00-1.14-.2h-.16l.12-.07.01-.3v-2.1c.01-1.35.02-2.69.07-4.04l.03-.56v-.17c.03-.4.05-.81.04-1.21l-.07-2.22a73.39 73.39 0 01-.07-3.08l-.01-1.22c0-.45-.02-.9-.04-1.35v-.45l-.02-.45a94.25 94.25 0 01.02-7.8c.4.15.86.15 1.31.15h1.01a82 82 0 003.8-.13c.34-.03.69-.03 1.02-.03h2.83c1.37-.02 2.75-.06 4.13-.13.83-.03 1.66-.03 2.48-.03.56 0 1.11 0 1.67-.02.65 0 1.3-.03 1.96-.06l.38-.02.32-.01 1.53-.03 1.43-.02c.96 0 1.9 0 2.85-.03l1.62-.07.53-.03c.54-.02 1.09-.02 1.63-.02h.66c1.64 0 2.93-.04 4.19-.1.9-.04 1.8-.06 2.7-.06l.84.01h11.8c1.56 0 3.92-.01 6.39-.1 1.23-.05 2.48-.06 3.72-.06h25.93c1.86 0 3.71 0 5.57-.06M424.12 85l.27-.21.16-.14.22-.2c.27-.26.54-.53.8-.83l.35-.41.35-.42c.13-.16.29-.32.44-.47l.31-.31c.32-.33.62-.69.92-1.03.37-.45.78-.88 1.19-1.3.33-.35.66-.71.98-1.08l.17-.2.11-.12c.42-.5.83-.98 1.29-1.44l.4-.4.14-.15.27-.29.56-.57 1.4-1.53.72-.8.35-.39.2-.21c.43-.5.86-.98 1.31-1.45 1.78-1.91 3.69-3.79 5.48-5.53l.14-.13.15-.14.82-.8.44-.43.47-.45 1.35-1.28c.52-.5 1.04-1.03 1.56-1.55l.31-.3.18-.18c.35-.36.7-.72 1.07-1.06l1.53-1.46.28-.26.24-.23.14-.13c.31-.29.62-.58.91-.88l1.3-1.31.33-.34 1.37-1.38c1.02-1.05 2.02-2.12 3.02-3.2l.55-.6.38-.4c.62-.66 1.24-1.31 1.88-1.96 1.01-1.05 2.04-2.1 3.1-3.1l1.23-1.23.42-.42.24-.24c.38-.39.74-.76 1.12-1.12l1.19-1.15 1.88-1.84c.46-.47.95-.92 1.46-1.36l.13-.12.15-.13c.44-.4.88-.78 1.31-1.2.7-.7 1.47-1.33 2.05-1.8l.2-.16.99-.86c.74-.65 1.46-1.34 2.15-2.03l.18-.17.78-.76c.67-.66 1.41-1.33 2.28-2.04.36-.28.69-.59 1.02-.9l.56-.52c.2.39.5.7.84 1.02.5.48 1 .96 1.45 1.47.9.97 1.85 1.92 2.78 2.84l.14.14c.5.49.99.98 1.46 1.48l.22.23.2.2.11.14.16.18.7.75.55.57.83.84c.37.4.72.81 1.08 1.23l.3.37a30.3 30.3 0 002.88 2.93l.51.46.26.24.6.56c.46.41.92.83 1.34 1.28.58.6 1.18 1.17 1.78 1.74l.18.18.8.76.8.76.4.37.3.28.3.27 1.2 1.13c.32.32.66.64 1 .95l.22.21c.55.52 1.1 1.03 1.61 1.59.93 1 2.02 2 2.88 2.76.46.4.91.82 1.36 1.25l.2.18.18.18.19.18.2.2.81.77.53.5.17.15.17.15.57.54.6.57.16.16.82.78.6.54a81.34 81.34 0 011.68 1.56l.65.62 1.52 1.4.6.51.81.71a111.3 111.3 0 012.94 2.83l1.77 1.71 1.05 1.03c.66.63 1.33 1.25 2 1.86l.99.91 1.1 1.04.27.27.33.32c.4.4.8.78 1.21 1.16l1.24 1.17.19.18c.48.46.97.92 1.47 1.37l.48.41.24.2.24.21.48.42c.4.36.79.73 1.17 1.1l.15.14.36.36c.23.24.47.48.73.7l.2.18.18.16.59.53c.45.43.9.88 1.33 1.34l.13.13c-.13.04-.21.28-.2.54.03.93.04 1.86.04 2.8 0 .3.02.6.04.91l.01.18.01.18.01.18.01.16.01.17.03.34.04.64.05.86.06 1.08.01.24-.12-.05c-.83-.14-1.72-.15-2.5-.15h-5.6c-.38 0-.77 0-1.16-.02a75.45 75.45 0 01-2-.12l-.93-.03-.96.03h-.49l-1.33.03h-.38l-1.25-.03a47.59 47.59 0 00-2.81-.02 51.19 51.19 0 01-4.18.02h-.37l-.36-.01h-.37l-.36-.01-.73-.01h-.36l-.36-.01h-.36l-.36-.01h-1.7c-.35 0-.7 0-1.03-.02-.7-.04-1.4-.06-2.1-.07l-3.8-.01h-8.64c-.82 0-1.63.03-2.43.05l-1.88.05c-.34 0-.66.02-.98.03l-.74.02-.51.02-2.12.02h-6.37c-.72 0-1.44 0-2.16.03-1.41.04-2.83.06-4.24.07h-10.5c-.88 0-1.77 0-2.65-.04-1.36-.05-2.7-.05-4.07-.06h-4.78c-.83 0-1.65-.02-2.47-.04h-.18l-.47-.01h-.27l-.72-.03c-1.29-.02-2.57-.02-3.86-.02h-6.94l-.7-.01-.25-.01-.3-.02c-.39-.02-.77-.04-1.15-.04h-1.15a20.32 20.32 0 01-1.34-.04l-.64-.02-.51-.01-1.13.06h-1.53l-.39-.01h-1.25a72.64 72.64 0 00-2.61.06l-.6.02-.43.02h-3.13c.07-.67.08-1.39.04-2.2l-.1-2.5v-.42l-.02-.14V86.45l.01-.33c.02-.33.03-.65.02-.98l.23-.17-.04.04zm56.52-60.74l-.36.32c-.29.27-.6.52-.9.77l-.68.57c-.6.53-1.17 1.1-1.74 1.66l-.12.12c-.41.41-.82.82-1.25 1.21-.9.87-1.78 1.62-3.16 2.78l-.12.1c-.54.45-1.05.9-1.54 1.39-.5.5-1.04.97-1.58 1.43-.7.62-1.38 1.3-2.03 1.95l-.99.97-.32.3-1.26 1.2-.8.83-.65.65c-.44.45-.88.89-1.33 1.32l-.34.33-1.37 1.34a135.18 135.18 0 00-3.02 3.12L456 47.79l-.59.62-.52.56-.7.75c-.6.67-1.23 1.3-1.86 1.94l-.2.2-.2.2-.39.39-.36.36-.72.73-.72.73-1.07 1.02-.54.5c-1.06 1-2.1 2.02-3.12 3.05-1 1-2.02 1.99-3.06 2.96-.7.66-1.36 1.32-2.04 2l-.97.96-.2.2-.2.2a112.1 112.1 0 00-6.19 6.48l-.2.23-.23.25-.3.33-.93 1.02-.7.74-.14.14-.54.53c-.44.46-.86.93-1.27 1.41l-1.2 1.35c-.43.45-.84.9-1.24 1.35-.29.34-.58.67-.88.98-.3.31-.54.54-.74.79l-.15.18a18.97 18.97 0 01-1.46 1.56l-.2.18-.5.4c-.3.29-.46.68-.45 1.12-.24.24-.37.58-.37.94.01.4 0 .8-.03 1.2-.01.32 0 .6.01.89l.02.38.01.5c.02.7.04 1.36.08 2.04.05.9.05 1.8.04 2.7v.79c0 .7.46 1.29 1.14 1.45.25.27.59.42.97.42h1.35a86.7 86.7 0 004.99-.1h3.72c.97 0 1.94 0 2.91-.03h.18l.2.02.91.02h.93c.58 0 1.14 0 1.7.04-.14.29-.16.6-.18.97l-.05.87-.06 2.28c-.02 1.45-.02 2.9-.01 4.36 0 .74.03 1.48.06 2.21l.01.24v.17c.03.54.05 1.04.05 1.57l.03 3.44v4.14a73.91 73.91 0 01-.11 3.86l-.01.3-.02.67-.05.77-.06 1a63.7 63.7 0 00-.05 2.86v.32c0 .23.06.46.17.65-.3-.2-.55-.2-.8-.2-.5.01-1 .03-1.48.06l-.6.02c-1.38.06-2.75.08-4.14.08h-1.8c-.5 0-1.02.03-1.52.06l-.51.03c-1.23.06-2.44.07-3.65.07h-.8c-.67 0-1.33 0-1.99.07-.37.06-.76.14-1.07.45-.3.32-.46.71-.46 1.1l.02.23c-.1.17-.17.4-.18.65a97.6 97.6 0 00-.13 4.46v.43c-.01.51-.02 1.02 0 1.52l.04.92.03.42.02.8c.05 1.32.05 2.64.06 3.97v.44c0 .66.04 1.31.07 1.97a32.21 32.21 0 01.02 3.74 44.7 44.7 0 00-.06 1.51l-.03 2.87v2.6c0 .41 0 .78.11 1.22.16.59.6.96 1.03 1.27.17.14.32.23.46.26.38.19.57.23.76.23.18 0 .36-.03.54-.06l.22-.03.2.04c.16.06.3.1.48.1.27 0 .53-.07.77-.24.06.11.28.2.56.23.28 0 .57.02.85.04l.3.02.56.02.2-.09a7.99 7.99 0 011.9-.21 8 8 0 012.07.26l.16.04h2.24c.82-.01 1.64-.05 2.46-.08l.56-.03c-.18.04-.26.18-.26.45l.03 2.59c0 .87-.04 1.74-.1 2.6v.2a274.8 274.8 0 01-.43 5.94l-.02.24a439.84 439.84 0 00-.57 8.29c-.05 1-.1 1.96-.17 2.92-.2 3.64-.45 7.56-.94 11.52a803.65 803.65 0 01-2.02 15.68c-.12.92-.22 1.86-.31 2.79l-.16 1.44-.34 3.1a463.4 463.4 0 01-.6 5.34l-.16 1.2-.14 1.06-.43 2.82c-.14.84-.28 1.67-.4 2.5l-.13.9-.04.3-.03.2-.03.25c-.2 1.38-.4 2.8-.54 4.19-.23 2.36-.43 4.73-.62 7.1v.19a860.33 860.33 0 01-.66 7.72c-.05.8-.12 1.6-.2 2.4l-.24 2.83-.23 2.76-.12 1.45c-.14 1.45-.26 2.9-.37 4.35a194.35 194.35 0 01-1.44 13.92l-.03.42-.13.77-.12.89-.46 3.38c-.15 1.21-.37 3.22-.6 5.93-.18 2-.3 3.92-.44 5.85l-.05.72-.04.64-.3 4.57c-.13 1.7-.33 3.44-.5 4.84l-.04.38-.45 4.36-.03.25-.16 1.57c-.12 1.11-.26 2.24-.4 3.36l-.07.57-.17 1.33-.52 4.83-.07.7-.07.7c-.19 1.85-.36 3.7-.51 5.55a282.9 282.9 0 01-.28 3.07l-.11 1.23-.12 1.34c-.34 4.04-.72 8-1.16 12.07l-.27 2.76-.27 2.75c-.16 1.48-.3 2.97-.44 4.45l-.15 1.5-.54 5.9c-.16 1.7-.34 3.38-.53 5.07l-.08.68c-.25 2.32-.46 4.77-.63 6.75l-.02.3-.06.66-.03.4-.06.65-.23 2.76-.15 1.89-.16 1.91c-.2 2.54-.4 5.07-.65 7.6-.23 2.46-.44 4.92-.64 7.37l-.18 1.92-.16 1.86-.24 2.81-.73 8.38-.24 2.71-.22 2.6-.16 1.86c-.1 1.25-.2 2.5-.33 3.74l-.05.45c-.16 1.77-.32 3.5-.5 5.23l-.22 2.24-.32 3.33-.09.97c-.15 1.63-.3 3.27-.4 4.91l-.05.74a242.5 242.5 0 01-.61 7.87l-.03.26-.01.15c-.23 2.5-.45 4.95-.63 7.4-.18 2.55-.41 5.16-.65 7.69l-.03.31-.03.24-.01.2-.02.19-.02.14-.08.82-.06.58-.05.51c-.1 1.22-.24 2.44-.37 3.66l-.19 1.76-.1.86-.17 1.5-.12 1.52-.13 1.52-.1 1.08a372.48 372.48 0 01-.48 5.23l-.05.36-.12 1.09-.19 1.9-.09.94c-.08.94-.19 1.88-.29 2.82l-.04.34-.1.95-.15 1.33c-.08.72-.14 1.45-.2 2.18l-.04.53a345 345 0 01-.2 2.37l-.08.87c-.04.5-.08.97-.14 1.45-.1.93-.19 1.87-.26 2.8l-.14 1.48-.05.53-.06.53-.08 1.1-.15 1.74-.2 2.06-.06.69c-.1 1.07-.2 2.13-.32 3.2l-.1.88c-.08.6-.13 1.09-.18 1.58-.05.5-.08 1.01-.1 1.52-.3.33-.64.67-1 .99l.26.3c.33.18 2.09 1.07 4.37 2.02.13.1.26.15.4.19l.23.08c1.45.62 2.92 1.2 4.4 1.8l.15.05.2.09c1.02.4 2.83 1.14 4.5 1.6.76.21 1.52.43 2.29.63l.17.05.54.14 1.95.52 4.65 1.3.68.18c.56.16 1.1.32 1.65.46l1.09.27.22.06.28.06.79.19.94.22.85.2.32.08.35.09a93.68 93.68 0 006.57 1.4l1.3.25 2.43.44 1.44.22.35.05.72.11 2.1.32.3.05.7.1a166.42 166.42 0 007.55 1.09c1.79.2 3.58.37 5.37.52l1.65.13.26.03.7.06a125.2 125.2 0 004.47.3l.82.04.48.02a51 51 0 002.26.09h1.59l3.82-.01h1c3.34 0 6.76-.01 10.06-.1 1.5-.05 3-.12 4.5-.2l.88-.05 2.53-.11 3.17-.15c1-.06 2.03-.15 3.04-.24l.36-.04.35-.02 1.4-.13c1.8-.18 3.62-.43 5.55-.7l1.46-.18c3.05-.4 6.1-.78 9.14-1.23a102.12 102.12 0 0013.7-2.88l1.83-.5 1.43-.36.91-.24 2.97-.76c1.77-.47 3.52-.95 5.28-1.44l1.77-.5.39-.1.6-.18.46-.13 2.01-.57c2.4-.63 4.94-1.48 6.8-2.11l.86-.3 1.94-.63.21.02.31-.13c.28-.1.57-.2.86-.28l.26-.04.7-.1.34-.05.1-.62-.04-.46-.14-1.1-.03-.23-.07-.43-.1-1.19-.02-.3a24.46 24.46 0 00-.33-2.53l-.09-.53-.05-.45-.11-.83-.1-1.07-.02-.28-.06-.68-.06-.75c-.04-.42-.08-.78-.1-1.14-.03-.3-.04-.6-.06-.91l-.04-.74c-.17-2.1-.48-4.33-.7-5.95l-.04-.23-.03-.23-.07-.42-.04-.27-.12-.9-.14-.98c-.1-.85-.23-1.7-.35-2.54l-.19-1.37-.1-.79a229.8 229.8 0 01-.63-6.1l-.06-.61-.06-.62-.06-.58-.15-1.42c-.1-.95-.22-1.88-.36-2.81l-.04-.34-.05-.3a325.8 325.8 0 01-.74-6.53l-.03-.34c-.23-2.09-.48-4.46-.8-6.9-.14-1.08-.28-2.14-.45-3.21-.07-.61-.15-1.22-.24-1.82l-.16-1.28-.08-.58-.03-.22-.1-.75-.02-.18-.13-1.11-.17-1.2c-.23-1.83-.47-3.67-.72-5.5-.2-1.61-.43-3.23-.66-4.84l-.04-.23-.15-1.2a425.37 425.37 0 00-.9-7.08l-.03-.3-.1-.86-.12-.85-.1-.84-.44-3.69-.03-.24-.03-.3c-.3-2.45-.6-4.9-.86-7.36-.1-.96-.21-1.92-.34-2.88l-.02-.17-.06-.64-.24-2.07-.06-.55-.05-.56-.07-.63-.06-.55a136.9 136.9 0 00-.39-3.37c-.24-2.01-.49-4.03-.7-6.05l-.1-.92-.08-.82-.02-.18-.01-.18-.04-.29-.15-1.4-.2-1.7-.07-.62a236.5 236.5 0 01-.6-5.24l-.48-4.96-.07-.64-.23-2.72-.1-1.11-.21-2.25c-.1-1.05-.2-2.1-.27-3.15l-.02-.15v-.17l-.18-2.05-.11-1.21c-.15-1.68-.3-3.27-.47-4.86l-.1-1.08-.1-.97-.07-.62-.3-2.85-.14-1.1-.14-1.18-.16-1.36-.28-2.44-.3-3.14-.05-.65-.08-.86-.09-.89-.59-6.12a234.7 234.7 0 00-.44-4.45l-.15-1.49c-.1-.9-.17-1.8-.25-2.7l-.04-.6-.04-.46-.13-1.48-.1-1-.09-1-.06-.76-.06-.54-.2-2.42c-.37-4.25-.71-7.97-1.1-11.72-.2-1.94-.39-3.87-.55-5.8-.18-2.06-.4-4.13-.62-6.19l-.52-5.15c-.21-2.2-.43-4.38-.68-6.56l-.18-1.51-.08-.68c-.13-1.1-.25-2.12-.35-3.16l-.2-2.07c-.12-1.38-.25-2.76-.4-4.15l-.1-.99-.09-.9-.04-.46a184.8 184.8 0 00-.6-5.25l-.1-.71-.38-2.97c-.23-1.94-.45-3.88-.66-5.83l-.48-4.1-.22-1.98-.22-1.95-.12-1.06a173.15 173.15 0 00-.55-5.04l-.03-.16-.09-.76-.1-.79-.16-1.48c-.37-3.36-.68-6.89-.95-9.92l-.07-.76-.03-.32-.04-.47c-.17-1.9-.32-3.82-.48-5.73l-.02-.23-.04-.48-.43-5.04c-.35-4.01-.66-7.7-.92-11.25-.12-1.85-.35-3.74-.56-5.53l-.03-.19-.29-2.6-.06-.55-.09-.76a132.57 132.57 0 01-.75-7.09 739.77 739.77 0 01-.63-8.48l-.02-.3-.17-2.6-.06-.84-.03-.49c-.1-1.5-.2-2.95-.35-4.4-.34-3.43-.82-7.34-1.45-11.64-.31-2.69-.52-5.34-.6-7.89l-.03-.67-.03-.64-.03-.62-.08-1.92c-.04-1.1-.02-2.17 0-3.24l.01-.74c.01.12.13.12.24.12l.6-.02 1.02-.06c1.32-.11 2.39-.16 3.36-.16h1.06a7.9 7.9 0 012.99 0h4.4a62.15 62.15 0 014.7.13c.9 0 1.54-.81 1.54-1.54 0-.15-.04-.32-.1-.5.34-.1.56-.5.6-1.07.03-.4.03-.83.02-1.24v-.71c0-.6.03-1.2.06-1.8l.04-.38.03-.44.02-.27a13.51 13.51 0 00.08-1.96v-.91l.01-.4.02-.26.02-.17.03-.46.06-.66c.05-.71.08-1.42.1-2.14v-1.42c.01-.95.02-1.9.05-2.86l.04-.98.01-.34.02-.3.01-.22.02-.65v-2.63c0-1.82-.01-3.59-.12-5.3a1.69 1.69 0 00-1.3-1.53c-.17-.36-.64-.62-1.13-.62h-.71c-.75 0-1.5-.01-2.26-.04a64 64 0 00-1.47-.04c-1.44-.02-2.88-.02-4.32-.02-1.5 0-3 .02-4.5.07-1.25.05-3.43-.1-4.68-.1-.72-.01-2.16 0-4.3.03l-.23-.02-.37-.01a38.68 38.68 0 00-3.42-.07l-1.2.07-1.03.07c-.72.05-1.44.07-2.16.08l-3.39.03h-29.47l-.97.05-1.22.05c-1.53.05-3 .06-4.47.06H461.42l-1.31.01a29.93 29.93 0 00-2.09.08c-1.43.05-2.85.06-4.28.06-.79 0-1.58.04-2.38.07l-2.03.07h-1.66c-.88 0-1.76 0-2.63.05-.85.05-1.71.08-2.57.1.08-.1.12-.24.12-.43 0-1.19.01-2.58.1-4.1.05-.68.08-1.36.1-2.05 0-.27.02-.54.04-.8a92.73 92.73 0 00.07-4.26v-1.2c0-1.43 0-2.86-.02-4.29a89.61 89.61 0 00-.1-3.4c-.05-1-.04-2-.04-2.99v-.26c0-1.17 0-2.35.04-3.52 0-.56.04-1.13.07-1.7.03-.6.06-1.08.07-1.57l.62.16H450.42c.7 0 1.4 0 2.09.02l.67.02c.45.03.9.04 1.36.05h3.89c2.5 0 4.93 0 7.11.08.58.02 1.15.03 1.73.03h1.34l1.34-.01h6.52l2.18-.01a97.12 97.12 0 002.74-.05h.5l1-.03 2.63-.01h5.93l2.28-.06.52-.01.4-.01 1.2-.02.46-.01.5-.01.46-.01.48-.01a59.6 59.6 0 012.21-.05h9.96a99.67 99.67 0 013.37.06h.27c.35.02.68.04 1.01.04h2.16c1.44 0 2.88.03 4.31.08l.71.01c.6 0 1.22-.02 1.82-.04.55-.02 1.06-.04 1.57-.04h6.43c.54 0 1.1.03 1.65.07 1.24.07 2.42.11 3.6.11h2.33l1.12-.01h1.13c1.01 0 2.2.01 3.37.1.43 0 .8-.17 1.1-.48a1.4 1.4 0 001.15-1.05c.1-.44.1-.87.08-1.29v-.3l-.07-1.02-.02-.44-.03-.45c-.02-.36-.04-.71-.08-1.06v-.2c-.04-.52-.08-1.04-.08-1.56 0-.96-.01-1.92-.05-2.88-.02-.34-.1-.58-.23-.8.33-.47.23-1.2-.25-1.7l-.44-.45-.18-.19-.1-.1c-.48-.49-.96-.97-1.43-1.37l-.23-.21c-.4-.35-.78-.69-1.13-1.06-.4-.44-.86-.86-1.3-1.27l-.7-.6-.37-.32-.16-.14a39.4 39.4 0 01-1.6-1.45l-1.28-1.2-1.7-1.63-.52-.5-.9-.88-.78-.7c-.26-.23-.52-.46-.76-.7l-2.82-2.7c-.46-.45-.92-.9-1.4-1.33a83.15 83.15 0 01-1.57-1.53c-.47-.47-.96-.95-1.46-1.41-.2-.19-.43-.37-.64-.55l-.2-.18-.37-.33-.2-.18c-.92-.82-1.8-1.65-2.7-2.5l-.23-.23c-.51-.48-1.02-.94-1.55-1.4-.33-.29-.65-.6-.97-.91l-.16-.16-.4-.4-.86-.79-.85-.8-1.24-1.17-.4-.37-.18-.17c-.28-.28-.58-.56-.87-.82l-.56-.5-.24-.2-.7-.64c-.48-.45-.93-.93-1.38-1.4l-.12-.12-.12-.12-.3-.3c-.3-.32-.6-.63-.92-.92l-.32-.29c-.36-.33-.72-.66-1.07-1.01l-.32-.3-.37-.36-.76-.73a55.7 55.7 0 01-1.54-1.42l-.39-.38-.19-.19c-.36-.35-.61-.59-.88-.82-.42-.38-.8-.77-1.2-1.17l-.11-.12c-.3-.32-.62-.62-.93-.92l-.41-.39-1.13-1.04-.28-.25-.26-.23-.15-.14a24.2 24.2 0 01-2.6-2.69l-.34-.42-.34-.39-.5-.56c-.28-.3-.57-.6-.86-.88l-.54-.55c-.42-.43-.83-.88-1.24-1.33l-.16-.18c-.65-.71-1.34-1.38-2.01-2.04l-.23-.21-.67-.67c-.37-.37-.74-.76-1.1-1.15l-.32-.34c-.27-.3-.52-.56-.78-.82l-.84-.83-.16-.16c-.46-.44-.92-.9-1.36-1.37-.28-.3-.65-.46-1.06-.46-.2 0-.41.06-.62.16-.05-.09-.26-.16-.48-.16-.37 0-.7.14-1.08.45-.36.31-.71.64-1.06.97z"/>
		<path fill="#FFF" fill-rule="nonzero" d="M478.25 29.33c-.45.84-.86 1.7-1.27 2.56-.83 1.7-1.52 3.46-2.25 5.2-.56 1.28-1.17 2.54-1.75 3.81-.63 1.37-1.21 2.75-1.88 4.1-.63 1.27-1.23 2.57-1.85 3.86-.36.76-.71 1.53-1.04 2.31l-.4.94-.03.09-.06.15-.04.08-.1.25-.02.04c-.01.05-.03.1-.06.14l-.14.33c-.02.05-.05.1-.06.16l-1.7 3.86c-.56 1.3-1.1 2.6-1.7 3.89-.64 1.35-1.3 2.69-1.92 4.04-.6 1.3-1.17 2.59-1.75 3.9-.69 1.56-1.44 3.09-2.13 4.64l-.95 2.17c-.32.73-.72 1.42-1.07 2.14-.34.68-.19 1.5.5 1.9.62.36 1.56.18 1.9-.5.27-.55.57-1.1.85-1.66.29-.55.52-1.14.76-1.72.54-1.23 1.1-2.45 1.67-3.67 1.17-2.57 2.3-5.16 3.52-7.71.32-.68.66-1.36.97-2.04.29-.62.55-1.25.84-1.88.61-1.37 1.2-2.76 1.8-4.13l.9-2.02.04-.11c.06-.1.1-.2.13-.31.05-.08.08-.17.1-.26l.03-.04.08-.2c.04-.08.08-.16.1-.24.05-.08.08-.17.11-.26l.38-.92.05-.11.08-.2a2.2 2.2 0 01-.07.19c1.16-2.61 2.46-5.16 3.64-7.77.59-1.3 1.18-2.61 1.79-3.9.62-1.33 1.2-2.68 1.76-4.04l.05-.1.07-.18a91.13 91.13 0 011.73-3.82c.55-1.1 1.13-2.18 1.72-3.27l.07-.17.1-.23c.06-.12.14-.23.23-.34l.01-.02.16-.29a1.4 1.4 0 00-.5-1.9 1.35 1.35 0 00-.69-.18c-.48 0-.97.24-1.21.68l-1.5 2.76zM483.81 24.97c-.34.1-.65.33-.83.64-.17.3-.27.74-.14 1.07.41 1.06.84 2.11 1.28 3.16 1.12 2.69 2.19 5.41 3.13 8.18.44 1.31.84 2.65 1.3 3.96.43 1.26.94 2.5 1.41 3.74 1 2.64 1.87 5.34 2.87 7.98.26.68.54 1.36.78 2.04l.69 1.96 1.35 3.9 1.41 4.02c.46 1.3.88 2.59 1.34 3.88.4 1.09.7 2.2 1.05 3.3.4 1.27.84 2.51 1.24 3.76.2.58.34 1.17.55 1.73.15.36.3.64.64.84a1.39 1.39 0 001.9-.5c.18-.3.27-.74.15-1.07-.22-.55-.36-1.11-.53-1.66-.2-.63-.43-1.24-.63-1.85-.4-1.15-.73-2.32-1.08-3.48-.38-1.25-.85-2.45-1.27-3.69-.45-1.3-.9-2.63-1.37-3.94-.94-2.63-1.83-5.27-2.75-7.9-.24-.67-.5-1.33-.76-2l-.76-2.06c-.5-1.33-.93-2.7-1.41-4.03-.45-1.24-.9-2.47-1.4-3.69-.51-1.29-.94-2.6-1.37-3.91-.44-1.4-.9-2.8-1.4-4.17-.5-1.4-1.07-2.75-1.6-4.12-.33-.86-.69-1.71-1.04-2.55l.13.33c-.4-.96-.8-1.92-1.17-2.9a1.5 1.5 0 00-.64-.82 1.38 1.38 0 00-1.07-.15M472.4 210.89c.04.78.1 1.57.1 2.35 0 .69-.04 1.38-.07 2.07-.05 1.54-.15 3.07-.2 4.62-.05 1.51-.06 3.02-.07 4.54-.02 1.5-.07 2.98-.12 4.47-.09 2.46-.09 4.91-.1 7.37 0 2.53-.13 5.07-.29 7.6-.05.76.67 1.4 1.39 1.4.8 0 1.34-.64 1.39-1.4.1-1.56.19-3.13.24-4.7a160 160 0 00.06-4.54c0-1.48.01-2.97.05-4.45.05-1.52.12-3.03.14-4.55.04-2.49.04-4.98.16-7.47l.16-3.67c.02-.54.05-1.09.04-1.63l-.1-2.01c-.05-.76-.6-1.4-1.4-1.4-.72 0-1.43.64-1.39 1.4M510.67 93.38c-.63.28-1.25.59-1.87.9-.66.36-1.31.71-1.9 1.2-.55.45-1.04.97-1.5 1.52-.48.57-.95 1.14-1.4 1.73a15.26 15.26 0 00-1.89 3.73c-.5 1.32-.72 2.75-.85 4.14a44.24 44.24 0 00-.15 3.98c0 .75.07 1.47.25 2.2.15.6.36 1.2.5 1.82.11.59.23 1.17.4 1.74.22.66.55 1.29.86 1.91.23.49.44.98.72 1.45.22.4.47.78.75 1.15.74.97 1.6 1.86 2.44 2.73.42.43.86.81 1.34 1.16.38.28.78.52 1.17.78.5.42.98.88 1.54 1.2a1.4 1.4 0 001.9-.5 1.4 1.4 0 00-.5-1.9l-.27-.17c-.46-.4-.92-.8-1.43-1.14l-.93-.6c-.52-.44-.99-.93-1.46-1.43-.48-.52-.97-1.02-1.43-1.57-.35-.48-.68-1-.95-1.53-.18-.33-.33-.69-.5-1.03-.15-.3-.3-.6-.44-.92-.27-.73-.42-1.48-.58-2.24-.16-.76-.44-1.49-.58-2.26-.03-.4-.03-.8-.02-1.22l.02-1.68c.03-.86.09-1.72.19-2.57.17-1.1.46-2.2.88-3.23a10.66 10.66 0 011.56-2.78c.67-.85 1.38-1.71 2.21-2.42a30.9 30.9 0 013.32-1.75 1.4 1.4 0 00-.67-2.58c-.25 0-.48.07-.73.18M477.3 108.84a1.38 1.38 0 00-.98 1.71c.1.38.33.61.64.83.49.36.97.66 1.55.84.53.17 1.08.25 1.62.4.73.2 1.5-.24 1.7-.97a1.4 1.4 0 00-.96-1.7c-.56-.16-1.13-.25-1.68-.43-.29-.15-.56-.34-.83-.54-.18-.13-.43-.19-.67-.19-.14 0-.28.02-.4.05"/>
		<path fill="#FFF" fill-rule="nonzero" d="M510.98 98.32c-.38.1-.6.33-.83.64a19.9 19.9 0 00-3.13 5.82c-.25.72.28 1.52.97 1.71.36.1.75.05 1.07-.14.33-.19.51-.48.64-.83.14-.39.3-.77.45-1.15a23.12 23.12 0 012.4-4.01c.21-.28.23-.75.14-1.07a1.4 1.4 0 00-1.34-1.02c-.12 0-.25.02-.37.05M505.91 109.68c0 .76.63 1.4 1.4 1.4a1.4 1.4 0 001.38-1.4 1.4 1.4 0 00-1.39-1.39 1.4 1.4 0 00-1.39 1.4M493.24 98.72c.12 1.3-.02 2.61.06 3.92.08 1.38.08 2.76.08 4.13 0 1.29-.06 2.57-.07 3.85 0 .7.03 1.4 0 2.1-.04.66-.03 1.3-.06 1.96-.03.75-.06 1.5-.06 2.26 0 .68.06 1.34.1 2.02.02.55-.07 1.1-.09 1.65l-.01 1.57c0 .76.63 1.39 1.39 1.39a1.4 1.4 0 001.39-1.39c0-.85 0-1.7.08-2.55.05-.58-.03-1.15-.06-1.72-.03-.58-.02-1.17-.01-1.76 0-.64.05-1.28.06-1.92 0-.66.05-1.32.05-1.97 0-1.34-.01-2.69.05-4.02.03-.74.02-1.49.02-2.23 0-.82 0-1.64-.03-2.45-.04-.85-.1-1.7-.09-2.54 0-.37.03-.74.04-1.12 0-.4-.03-.79-.06-1.18-.04-.39-.13-.7-.41-.98a1.4 1.4 0 00-.98-.41c-.7 0-1.46.63-1.4 1.39M479.49 105.3c0 .77.63 1.4 1.39 1.4a1.4 1.4 0 001.39-1.4 1.4 1.4 0 00-1.4-1.38 1.4 1.4 0 00-1.38 1.39M475.42 105.7c0 .75.63 1.38 1.39 1.38a1.4 1.4 0 001.39-1.39 1.4 1.4 0 00-1.39-1.39 1.4 1.4 0 00-1.39 1.4"/>
		<path fill="#FFF" fill-rule="nonzero" d="M493.5 106.17c-.1.2-.19.37-.3.55-.46.54-.97 1.04-1.46 1.55-.49.52-1.01.98-1.57 1.41l-.94.72.05-.04-.16.12-.24.18a24.64 24.64 0 01-3.65 2.2c-.88.35-1.79.6-2.64 1.03-.68.33-.85 1.28-.5 1.9.4.69 1.23.83 1.9.5l.26-.12c.62-.24 1.26-.43 1.88-.69a16.3 16.3 0 002.4-1.25 24.3 24.3 0 001.95-1.31l.29-.22.23-.18c.83-.62 1.7-1.23 2.41-1.98.38-.38.74-.78 1.11-1.17a7.55 7.55 0 001.38-1.8c.34-.68.19-1.5-.5-1.9a1.4 1.4 0 00-.7-.18c-.48 0-.97.23-1.2.68M591.9 87.08c-2.3.21-4.6.45-6.9.7.28.9.54 1.8.78 2.71l1.79-.2c1.75-.2 3.51-.33 5.26-.52l.85-.1c-.28-.9-.59-1.78-.91-2.67l-.87.08M576.49 88.7c-1.55.15-3.09.27-4.62.43.3.9.56 1.8.77 2.7 1.59-.14 3.17-.26 4.76-.44l1.38-.15c-.25-.9-.53-1.78-.8-2.67l-1.5.14M561.27 90.37l-2.44.28c.16.91.35 1.82.56 2.72.97-.12 1.93-.22 2.9-.35l2.37-.27 1.02-.13c-.25-.9-.55-1.8-.88-2.68l-3.53.43zM550.6 91.72l.38-.05-2.86.42.11-.02c-.77.1-1.54.2-2.3.33-.34.06-.67.36-.84.64-.19.33-.24.72-.14 1.08.1.34.33.64.64.83.35.2.69.2 1.07.13l1.19-.18c1-.13 1.99-.29 2.99-.43l-.37.05 2-.28-.18-.83c-.12-.62-.23-1.25-.32-1.87l-1.36.18M546 126.02a1.4 1.4 0 00-.5 1.9c.18.29.5.58.84.64.76.13 1.53.23 2.3.33l-.1-.01 2.86.41-.38-.05a252.88 252.88 0 003.66.49l-.06-2.79-1.51-.19-2.23-.3c.13 0 .25.02.37.04-1-.14-2-.3-3-.42l-1.17-.19a2.7 2.7 0 00-.4-.04c-.23 0-.45.05-.67.18M561.64 130.59h.04c2.86.34 5.7.7 8.56 1.03l-.33-2.82-2.2-.25c-.87-.1-1.76-.23-2.64-.34-.79-.09-1.58-.17-2.36-.27l-1.12-.13.05 2.78M577.27 132.3c1.53.14 3.07.3 4.6.48l2.93.34c-.02-.45-.03-.9-.02-1.36 0-.48.02-.96.03-1.43l-7-.75a89 89 0 00-.87-.1c.1.94.23 1.88.33 2.81M482.56 208.82c.03.68.09 1.38.06 2.07-.03.66-.06 1.3-.12 1.96-.13 1.4-.18 2.8-.2 4.2v4.23c0 .65-.05 1.29-.07 1.94-.03.71-.04 1.42-.05 2.13 0 .67-.01 1.33-.05 2-.04.68-.1 1.38-.16 2.07l-.18 1.92c-.06.65-.08 1.3-.13 1.96-.04.62-.05 1.24-.07 1.86-.01.71-.07 1.42-.1 2.13-.03.64-.1 1.27-.17 1.91-.1.73-.14 1.46-.2 2.2-.07.76.68 1.38 1.39 1.38.36 0 .72-.14.98-.4.28-.27.37-.6.4-.98.07-.74.12-1.47.2-2.2.1-.68.16-1.35.18-2.03.04-.7.08-1.38.1-2.07.02-.65.04-1.3.08-1.95.05-.67.08-1.35.14-2.01l.18-1.95c.06-.7.12-1.4.15-2.1.04-.7.04-1.41.05-2.11 0-1.35.1-2.69.1-4.02 0-1.35 0-2.7.02-4.05 0-1.36.07-2.73.2-4.1.05-.63.08-1.27.1-1.92.04-.69-.02-1.39-.05-2.07-.05-.76-.6-1.4-1.4-1.4-.72 0-1.43.64-1.38 1.4M521.97 126.62c.63-.28 1.25-.59 1.86-.9.67-.36 1.31-.71 1.9-1.2.56-.45 1.04-.98 1.51-1.52.48-.57.95-1.14 1.4-1.73a15.26 15.26 0 001.88-3.73c.5-1.32.73-2.75.86-4.15.12-1.32.14-2.65.15-3.98 0-.74-.07-1.47-.25-2.19-.15-.61-.36-1.2-.5-1.82-.12-.59-.23-1.17-.41-1.74-.22-.67-.54-1.29-.85-1.91-.24-.49-.45-.98-.72-1.45-.23-.4-.47-.79-.75-1.15-.74-.98-1.6-1.86-2.44-2.73-.42-.43-.87-.81-1.34-1.17-.38-.27-.79-.5-1.17-.77-.5-.42-.98-.88-1.54-1.2a1.4 1.4 0 00-1.9.5 1.4 1.4 0 00.5 1.9l.26.17c.47.4.92.8 1.44 1.13.3.2.62.4.92.62.53.43 1 .92 1.46 1.42.48.52.98 1.02 1.43 1.57.36.48.68 1 .96 1.52.18.34.32.7.5 1.04.14.3.3.6.43.91.28.73.42 1.49.58 2.24.16.77.45 1.5.58 2.26.04.4.03.81.03 1.22 0 .57-.02 1.13-.03 1.7-.02.85-.08 1.7-.18 2.56-.17 1.1-.46 2.2-.88 3.23a10.66 10.66 0 01-1.56 2.78c-.68.85-1.39 1.7-2.22 2.41a31.1 31.1 0 01-3.32 1.75c-.3.14-.55.52-.63.84a1.4 1.4 0 001.3 1.75c.26 0 .49-.07.74-.18M430.96 129.93c-.02.77-.05 1.54-.05 2.31-.01.73.06 1.45.09 2.16.07 1.5.1 2.98.11 4.47.02 1.44 0 2.88.1 4.32.07 1.41.12 2.82.14 4.24.04 2.46.04 4.91.04 7.37 0 .76.63 1.4 1.39 1.4a1.4 1.4 0 001.39-1.4c0-2.8 0-5.59-.05-8.38-.04-1.44-.16-2.86-.2-4.3-.04-1.46-.02-2.94-.04-4.41a89.54 89.54 0 00-.13-3.8c-.03-.63-.07-1.24-.06-1.87l.05-2.11a1.4 1.4 0 00-1.4-1.39c-.76 0-1.36.64-1.38 1.39M439.98 128.85v4.23c0 1.43.01 2.86.15 4.29.27 2.7.27 5.4.46 8.1.06.75.12 1.5.16 2.24.05.75.05 1.5.08 2.27.06 1.39.18 2.78.23 4.18a1.4 1.4 0 001.39 1.39 1.4 1.4 0 001.39-1.4c-.02-.6-.06-1.2-.1-1.82-.06-.64-.07-1.29-.1-1.94-.04-.63-.05-1.27-.07-1.91-.03-.7-.08-1.38-.14-2.06-.1-1.33-.18-2.66-.22-4-.02-.67-.05-1.35-.1-2.02-.04-.66-.04-1.33-.1-1.99l-.2-2.41c-.06-.81-.06-1.62-.06-2.43v-4.72a1.4 1.4 0 00-1.38-1.39 1.4 1.4 0 00-1.4 1.4M449.14 128.89c.03.72.1 1.45.13 2.18.03.7.04 1.41.08 2.11l.24 4.26c.09 1.43.17 2.88.2 4.32.03 1.42.03 2.85.03 4.27v7.35c0 .76.63 1.39 1.39 1.39a1.4 1.4 0 001.39-1.4v-8.06c0-1.43 0-2.86-.05-4.3-.06-1.45-.14-2.92-.22-4.37l-.22-3.85c-.04-.65-.04-1.3-.07-1.95-.03-.65-.1-1.3-.12-1.95a1.4 1.4 0 00-1.4-1.4c-.73 0-1.41.64-1.38 1.4M457.56 128.02c0 .7-.01 1.4.04 2.1.05.76.11 1.53.19 2.29.13 1.45.23 2.9.32 4.34.07 1.43.16 2.87.19 4.3.02 1.38-.05 2.74-.08 4.11-.03.73-.08 1.45-.1 2.18-.04.73-.04 1.47-.05 2.2v4.44c0 .76.63 1.39 1.39 1.39a1.4 1.4 0 001.39-1.39c0-2.7-.03-5.4.11-8.1.16-2.79.16-5.58-.03-8.36-.1-1.55-.2-3.1-.33-4.64-.06-.8-.15-1.6-.2-2.4-.06-.82-.05-1.64-.06-2.46a1.4 1.4 0 00-1.39-1.39c-.75 0-1.4.63-1.39 1.4M466.18 128.8c.02 1.47.05 2.93.17 4.4.12 1.4.21 2.83.28 4.25.06 1.4.16 2.8.22 4.21.06 1.47.07 2.94.08 4.4v2.24c0 .7-.05 1.4-.07 2.1-.06 1.48-.04 2.97-.11 4.45-.04.76.66 1.4 1.39 1.4.79 0 1.35-.64 1.39-1.4.07-1.37.05-2.74.1-4.12.01-.65.06-1.3.08-1.97v-2.06c0-2.83-.07-5.65-.26-8.48-.1-1.53-.15-3.07-.28-4.6-.14-1.6-.2-3.2-.21-4.82a1.4 1.4 0 00-1.4-1.39c-.74 0-1.39.63-1.38 1.39M476.58 126.83c-.35.09-.65.32-.83.63-.2.36-.2.69-.14 1.08l.01.1c.15 1.38 0 2.76.03 4.15.04 1.4.15 2.82.16 4.23.03 1.4.02 2.79.02 4.18 0 1.35.08 2.7.09 4.06v4.15c0 .75-.05 1.49-.07 2.23-.01.77-.06 1.52-.1 2.29-.02.75.67 1.39 1.4 1.39a1.4 1.4 0 001.39-1.39c.06-1.32.12-2.64.16-3.96.03-1.26 0-2.53 0-3.8l-.01-1.83c-.02-.7-.07-1.38-.08-2.08-.02-1.43 0-2.86 0-4.28l-.04-2.41c-.03-.8-.1-1.6-.13-2.4a43 43 0 01.02-2.5c0-.45.02-.9 0-1.36-.02-.5-.1-1.01-.17-1.52-.05-.33-.36-.66-.64-.83a1.4 1.4 0 00-1.07-.13M485.89 127.92c0 .72.06 1.44.07 2.16l.04 2.08c.04 1.42.21 2.84.33 4.26.12 1.45.12 2.9.18 4.35.06 1.47.16 2.94.2 4.42.06 2.92.02 5.85.02 8.77 0 .76.63 1.4 1.39 1.4a1.4 1.4 0 001.39-1.4v-7.86c-.02-1.46-.1-2.91-.18-4.37-.07-1.46-.1-2.93-.15-4.4-.04-.78-.13-1.57-.2-2.36a66.6 66.6 0 01-.18-2.35c-.04-.79-.04-1.58-.05-2.37-.01-.77-.08-1.55-.08-2.33a1.41 1.41 0 00-1.4-1.4c-.75 0-1.4.64-1.38 1.4M496.05 128.26c.01 1.44.06 2.87.13 4.31.07 1.34.11 2.68.19 4.02.07 1.32.21 2.63.23 3.95.02 1.38.01 2.76.02 4.14 0 .86.1 1.71.06 2.57-.04.87-.05 1.74-.06 2.6 0 .87-.04 1.74-.06 2.6-.04.98-.04 1.95-.04 2.92 0 .76.64 1.39 1.4 1.39a1.4 1.4 0 001.38-1.39c0-.8 0-1.59.02-2.38.02-.66.06-1.32.07-1.97.02-.7 0-1.4.02-2.1l.06-1.97c.02-.7-.05-1.4-.07-2.09-.02-.67 0-1.34 0-2-.01-1.34 0-2.68-.08-4.01-.05-.87-.14-1.73-.2-2.6-.04-.83-.05-1.66-.1-2.5-.1-1.83-.18-3.66-.19-5.49a1.4 1.4 0 00-1.39-1.39c-.75 0-1.4.63-1.39 1.4M505.44 127.54a85.35 85.35 0 00-.04 4.27c0 1.4.12 2.8.23 4.2.12 1.46.13 2.92.08 4.4-.04 1.37-.04 2.76-.04 4.14v8.2c-.03.92-.12 1.83-.07 2.74.05.76.6 1.4 1.4 1.4.72 0 1.43-.64 1.38-1.4-.04-.7 0-1.42.03-2.12.03-.76.04-1.51.04-2.27v-4.3-4.32c.02-1.48.1-2.96.06-4.44-.03-1.72-.22-3.44-.3-5.16a64.45 64.45 0 010-5.34c.04-.76-.65-1.4-1.38-1.4a1.4 1.4 0 00-1.4 1.4M516.04 126.3c-.35.1-.65.33-.83.64-.2.36-.2.69-.14 1.08V128.06c.07.65.1 1.32.1 1.98.01.71.04 1.42.07 2.13.04 1.43.09 2.87.16 4.3.06 1.39.06 2.77.06 4.15 0 1.47-.08 2.93-.08 4.4 0 .74 0 1.47-.02 2.2-.03.8-.11 1.59-.14 2.38-.05 1.55-.11 3.1-.13 4.66 0 .76.64 1.4 1.4 1.4a1.4 1.4 0 001.38-1.4c0-.68 0-1.36.03-2.05.03-.68.07-1.36.08-2.04.03-1.32.17-2.63.17-3.95 0-2.86.14-5.72.06-8.58-.04-1.74-.15-3.48-.18-5.22-.02-.82-.07-1.65-.08-2.48-.01-.9-.08-1.77-.2-2.66-.05-.34-.36-.67-.64-.83a1.38 1.38 0 00-1.07-.14M525.42 127.2c0 .66.03 1.33 0 2-.02.7-.05 1.4-.06 2.11 0 1.45.07 2.89.07 4.33.02 1.41 0 2.83.06 4.24.03.7.01 1.38-.04 2.08-.06.64-.16 1.29-.2 1.94-.07.9-.05 1.82-.13 2.73-.08.96-.19 1.9-.21 2.85l-.09 2.66c-.03.94-.1 1.87-.16 2.8-.06.76.67 1.4 1.39 1.4.79 0 1.33-.64 1.39-1.4.03-.61.1-1.23.13-1.85.04-.63.04-1.27.07-1.9.03-.63.03-1.25.05-1.87.02-.64.09-1.27.14-1.9.06-.63.11-1.25.12-1.88.02-.65.04-1.3.1-1.96.06-.66.15-1.33.2-2 .07-.68.03-1.36 0-2.04-.08-2.05-.01-4.1-.06-6.14a53.85 53.85 0 01-.02-3.22c.03-1 .05-1.98.03-2.98a1.4 1.4 0 00-1.4-1.4c-.74 0-1.4.64-1.38 1.4M535.23 127.82v8.4c0 1.41.05 2.82-.01 4.22-.06 1.28-.1 2.55-.17 3.82-.04.8-.08 1.59-.09 2.38-.01.82-.07 1.63-.08 2.45-.01.79-.11 1.57-.15 2.35-.05.84-.1 1.68-.11 2.52-.03.76.64 1.4 1.39 1.4.77 0 1.36-.64 1.39-1.4.02-.68.07-1.35.09-2.02.01-.64.08-1.28.12-1.91l.07-1.81c.02-.65.06-1.3.07-1.95.02-1.3.13-2.6.18-3.9.05-1.28.08-2.57.08-3.86v-10.69a1.4 1.4 0 00-1.4-1.39 1.4 1.4 0 00-1.38 1.39M492.27 207.57c0 .77 0 1.56-.02 2.33-.02.76-.07 1.52-.1 2.27-.06 1.48-.06 2.96-.08 4.45 0 1.48 0 2.96-.02 4.44-.01 1.5-.1 3-.18 4.51-.23 4-.21 8.02-.22 12.03 0 .76.64 1.39 1.4 1.39a1.4 1.4 0 001.38-1.4c0-3.16 0-6.33.1-9.5.05-1.47.16-2.95.22-4.43.06-1.48.1-2.97.1-4.47 0-1.95 0-3.9.04-5.86.02-.9.06-1.82.1-2.72.06-1.02.06-2.03.06-3.04a1.4 1.4 0 00-1.39-1.4 1.4 1.4 0 00-1.39 1.4M502.43 101.57h-3.28c-1.17.01-2.33.06-3.5.07a1.4 1.4 0 00-1.38 1.39c0 .75.63 1.39 1.39 1.39 1.16 0 2.32-.06 3.49-.06l3.28-.01a1.4 1.4 0 001.39-1.4 1.4 1.4 0 00-1.38-1.38h-.01zM504.08 118.18c-1.5.11-3 .13-4.51.17-.77.03-1.54.02-2.3.02h-2.03a1.4 1.4 0 00-1.4 1.4c0 .74.64 1.4 1.4 1.39.79-.02 1.58-.02 2.37-.02l1.96-.01c.77-.01 1.53-.05 2.3-.08.74-.02 1.48-.04 2.21-.1.38-.02.71-.13.99-.4.25-.26.4-.61.4-.98 0-.7-.59-1.4-1.3-1.4h-.09"/>
		<path fill="#FFF" fill-rule="nonzero" d="M479.4 100.57c.49.09.96.22 1.43.4.23.1.45.22.66.37.57.47 1.07 1.02 1.52 1.6l.23.29-.04-.05c.33.43.63.86.86 1.34.22.59.35 1.2.44 1.84l-.01-.09.03.26c.09.66.14 1.34.08 2-.15.79-.44 1.54-.74 2.29-.17.36-.36.7-.6 1.02l.15-.2c-.44.56-.9 1.14-1.44 1.61-.12.08-.23.14-.36.2-.45.17-.91.32-1.37.48-.46.16-.9.31-1.37.4a6.34 6.34 0 01-2.13-.25 10.4 10.4 0 01-2.63-2.13 8 8 0 01-.7-1.22 5.86 5.86 0 01-.29-1.04 9.93 9.93 0 01-.02-1.84l.1-.7-.05.37a8.24 8.24 0 01.8-2.58c.14-.27.3-.52.49-.77.27-.33.55-.66.84-.98.37-.42.73-.9 1.15-1.27a8.75 8.75 0 011.52-.88c.3-.11.55-.25.74-.5.24 0 .47 0 .7.03m-.93-2.8c-.33.01-.66.05-.97.15-.44.14-.8.42-1.09.76l-.05.05c-.75.36-1.45.81-2.06 1.38-.32.3-.56.67-.86.98l-.77.89c-.32.38-.63.77-.9 1.18-.2.35-.36.73-.53 1.1-.2.46-.4.93-.54 1.42-.16.53-.22 1.08-.3 1.63l.02-.12c-.08.66-.14 1.3-.11 1.98.03.75.13 1.52.4 2.22a7.72 7.72 0 002.42 3.5c.55.46 1.12.9 1.72 1.31.37.25.8.43 1.21.58.32.12.7.14 1.05.2.85.13 1.65.2 2.51.04.56-.1 1.08-.31 1.61-.5.43-.15.86-.27 1.28-.44.28-.12.58-.24.84-.4.25-.17.48-.35.69-.55.36-.34.68-.72 1-1.1.36-.43.74-.88 1.02-1.37.3-.52.5-1.1.7-1.65.2-.52.4-1.04.5-1.58.26-1.21.13-2.42-.05-3.64l.05.37c-.11-.86-.24-1.7-.56-2.52a6.52 6.52 0 00-.55-1.11c-.2-.3-.42-.6-.64-.89l-.02-.02-.2-.26.03.04c-.88-1.13-1.85-2.33-3.2-2.9a8.7 8.7 0 00-3.65-.74"/>
		<path fill="#FFF" fill-rule="nonzero" d="M482.84 113.85c-.35.1-.65.33-.83.64-.2.36-.2.69-.14 1.07l.02.16c.08.82.1 1.65.13 2.48.05.85.14 1.69.21 2.54l.18 2.26c.07.87.17 1.73.17 2.6a1.4 1.4 0 001.4 1.39c.75 0 1.4-.63 1.38-1.39 0-.88-.1-1.75-.18-2.63l-.2-2.57c-.07-.88-.15-1.76-.2-2.65-.03-.42-.04-.85-.06-1.27-.03-.56-.1-1.1-.17-1.66-.05-.33-.36-.66-.64-.82a1.38 1.38 0 00-1.07-.15M472.04 114.05c-.02 1.07-.02 2.15-.02 3.23 0 1.01.05 2.03.06 3.05.04 2.12-.01 4.24.03 6.37a1.4 1.4 0 001.4 1.39c.74 0 1.4-.63 1.38-1.4-.04-2.07 0-4.16-.03-6.24l-.06-3.14c0-1.09 0-2.18.02-3.26a1.4 1.4 0 00-1.39-1.39 1.4 1.4 0 00-1.39 1.39"/>
		<path fill="#FFF" fill-rule="nonzero" d="M471.14 114.12a15.36 15.36 0 00-3.47 4.64c-.45.92-.9 1.84-1.3 2.79-.15.36-.24.67-.13 1.07a1.38 1.38 0 001.7.97c.31-.08.7-.33.84-.64.3-.7.61-1.38.95-2.07a19.6 19.6 0 011.8-3.14c.49-.6 1-1.14 1.58-1.65.56-.51.52-1.45 0-1.97-.27-.27-.61-.4-.96-.4-.36 0-.72.14-1 .4M606.23 135.33c2.62.25 5.24.5 7.86.78l.69.07.03-2.77c-1.71-.19-3.43-.37-5.14-.53l-3.46-.33.02 2.78M492.47 220.23c-.73.13-1.46.26-2.17.46-.68.19-1.36.39-2.04.56-.63.16-1.27.31-1.91.43-.64.12-1.28.22-1.93.36-.64.14-1.3.28-1.94.44-.62.15-1.22.36-1.84.47-1.29.24-2.56.48-3.81.82-.78.2-1.55.38-2.32.56-.74.16-1.16 1-.97 1.7.2.76.97 1.14 1.7.97.64-.14 1.28-.26 1.9-.43.6-.16 1.22-.33 1.83-.47.64-.14 1.3-.28 1.94-.39.65-.1 1.26-.26 1.9-.44.62-.18 1.27-.3 1.9-.44a30.5 30.5 0 011.89-.38c1.35-.23 2.66-.6 3.98-.96.37-.1.74-.21 1.12-.3.5-.12 1-.2 1.5-.28.75-.13 1.16-1.03.98-1.7a1.4 1.4 0 00-.64-.84 1.3 1.3 0 00-.68-.18c-.13 0-.26.02-.4.04M602.56 85.95l-2.71.27c.3.89.6 1.79.86 2.7l8.55-.83.1-.01a47.1 47.1 0 00-.76-2.71l-6.04.58M591.73 131.76c-.01.7.01 1.39.04 2.08l.54.05c1.78.17 3.56.4 5.34.59l1.63.17c0-.92-.02-1.86-.01-2.79l-.67-.06c-1.79-.18-3.57-.4-5.36-.6l-1.5-.15-.01.71"/>
	</g>
</svg>
