<svg xmlns="http://www.w3.org/2000/svg" viewBox="0 0 1280 640">
	<g fill="none" fill-rule="evenodd">
		<path fill="#FF201B" d="M0 0h1280v640H0z"/>
		<path fill="#FFF" fill-rule="nonzero" d="M451.3 504.6c.46-.07.92-.07 1.38-.07h2.91a128.83 128.83 0 008.73-.43l.73-.04c.53-.04 1-.07 1.48-.08l2.3-.08c.78-.03 1.55-.09 2.32-.15l.35-.02.55-.04 1.11-.07c.82-.05 1.63-.12 2.43-.18l.48-.03 1.6-.12a125 125 0 004.66-.54l1.88-.26.75-.11 1.76-.25.3-.04 1.97-.26.97-.13 2.9-.38c3.23-.46 5.9-.85 8.65-1.38l.72-.16.72-.15.8-.17 2.11-.44.32-.07.25-.05.3-.08c1.19-.25 2.36-.5 3.53-.79l.84-.18.32-.1.19-.01a65.3 65.3 0 012.8-.6c.89-.18 1.77-.34 2.65-.49l.37-.06 1.47-.25c3.7-.68 6.51-1.27 9.07-1.94a114.9 114.9 0 0012.69-3.9l.62-.22.26-.1.45-.17.76-.27.85-.3c.48-.19.97-.36 1.46-.53l1.02-.36.72-.25.74-.26.21-.07c1.15-.4 2.3-.81 3.43-1.24a71.7 71.7 0 012.96-1.05l.96-.3.24-.08c.7-.21 1.39-.43 2.08-.67.18-.04.37-.14.57-.3l.11 2.08.75 5.53.1.68.22 1.6.03.26.17-.1-.04.2-.05.3c.1.9.2 1.8.33 2.71l.1.76.16 1.29.18 1.38.2 1.59.04.28a157.1 157.1 0 00.62 4.57l.02.16.16 1.17.13 1c.32 2.55.6 5.1.87 7.67.12 1.22.25 2.44.39 3.65l.31 2.36.03.14.02.23.15 1.12.45 4.35.02.26a186.65 186.65 0 001.1 9.3l.15 1.1c.05.5.12 1 .2 1.49l.05.2c.04.5.1.91.17 1.33l.07.52.16 1.1c.3 2.34.5 4.34.59 6.15.03.47.08.94.12 1.4l.05.49.06.7.03.34.09.99c.13 1.08.3 2.17.46 3.25.08.63.13 1.25.17 1.88.02.26.04.51.08.76-.56.1-1.28.35-2.21.75-.88.38-1.74.77-2.6 1.19l-.17.06-.18.06c-2.24.73-4.54 1.38-6.76 2.01l-.37.1-.15.05-.28.08-.14.04-.2.06-.52.14-1.87.52c-1.72.49-3.44.95-5.16 1.41l-.51.13-1.78.46-.38.1-.68.17-2 .52-1.98.53-.6.16c-.83.23-1.65.44-2.47.65-1.5.37-3.2.72-5.25 1.07-2.46.48-5 .83-7.15 1.12l-2.73.35-.83.1-5.41.72c-2.06.3-3.81.5-5.37.61a171.89 171.89 0 01-8.36.55c-.8.02-1.6.06-2.4.1-2.09.11-3.9.18-5.55.22-3.4.07-6.8.07-10.2.08H479.44c-1 0-2 0-3-.04a89.86 89.86 0 01-5.14-.27 363.3 363.3 0 01-5.82-.5 97.31 97.31 0 01-7.36-.86l-.35-.05-.4-.07-.16-.03a98 98 0 00-2.32-.36c-1.7-.24-3.38-.51-5.07-.78l-.15-.02a83.9 83.9 0 01-3.45-.63l-1.5-.28-1.03-.2-1.38-.26c-.74-.14-1.49-.29-2.24-.47l-.37-.1-1.43-.34-.55-.13-.21-.05-.63-.14-2.22-.52c-.85-.21-1.7-.45-2.53-.7l-.49-.13-.16-.05-.16-.04c-.42-.12-.83-.24-1.25-.34-.81-.22-1.63-.44-2.44-.68l-.35-.1c-.7-.2-1.4-.4-2.1-.57l-.67-.18-.16-.04-.18-.05-.13-.04c-1.15-.3-2.58-.7-3.8-1.14a292.26 292.26 0 01-7.24-2.9l-.25-.12c-.58-.25-1.15-.51-1.73-.78l.05-.28c.09-.9.18-1.8.3-2.69.1-.74.17-1.5.24-2.23l.1-1c.08-.63.14-1.24.19-1.87.03-.49.08-.99.14-1.5l.05-.48.07-.77.08-1.02.01-.27a61 61 0 01.07-.92l.14-1.46.1-1.04.07-.74.16-1.57c.15-1.3.28-2.77.4-4.47.07-1.17.2-2.33.32-3.5l.16-1.56.37-3.47.01-.15a807.96 807.96 0 00.88-8.8l.03-.35.05-.57.05-.66.06-.75.14-1.57c.1-1.18.23-2.36.37-3.53l.19-1.62c.14-1.22.24-2.44.35-3.66l.2-2.03.02-.18.19-2.18c.05.16.21.2.42.24.28.02.56.06.82.09.65.09 1.3.16 1.95.2.56.02 1.13.08 1.68.14l.27.02c.51.06 1.03.06 1.56.07h.54l2.02.09.97.06 1 .06.9.02h.61l.6-.01h7.46l3.3.01c3.16 0 6.9-.03 10.62-.23m61.42-60.63c1.86-.29 3.54-.55 5.29-.87l1.07-.22.8-.15 2.4-.46.44-.09a90.87 90.87 0 005.65-1.21l.42-.12.31-.08.61-.12.21-.06 1.04-.26c1.25-.26 2.5-.59 3.74-.91l.17-.05.16-.05.2-.05 2.22-.6 2.2-.58 1.33-.35c1-.25 1.98-.51 2.97-.8l.4-.11a37.34 37.34 0 002.72-.83l.16-.06.4-.13.49-.18.77-.27.77-.29.33-.11 2.13-.75-.02.2.02.32c.2 2.15.45 4.3.7 6.43l.1.77c.17 1.43.33 2.84.47 4.27.18 1.79.37 3.57.59 5.35l.06.51c.25 1.95.49 3.87.68 5.8.19 1.87.37 3.67.59 5.45l.05.38.04.38c-.37.08-.68.2-.96.33a.87.87 0 00-.45.16l-.17.1-.16.07-.8.33-.2.08c-.36.1-.61.27-.8.49a81.98 81.98 0 01-8.31 2.52c-1.24.3-2.46.62-3.7.94l-.22.06-.25.07-.85.22-1.04.28-1.04.27-1.34.35-4.45 1.15-.89.23-.34.1-.15.04-.21.05-.17.04c-.8.21-1.67.44-2.52.59-2.33.5-4.68.91-7.08 1.32l-1.88.33-2.91.55c-1.59.32-3.47.68-5.34.95l-1 .15a65.28 65.28 0 00-5.66 1.06l-1.77.33c-4.99 1.01-10.16 1.9-15.36 2.63-.07 0-.15.02-.35.09-.44.02-.84.08-1.24.13l-.79.13-.27.04-.88.13-.57.07-.4.1-.8.07-.9.13-.5.08-.64.1-3.46.5-.77.08a97.9 97.9 0 01-5.03.46l-.53.04c-2.02.16-4.13.39-6.46.7-1.9.25-3.94.38-5.7.47l-.84.06-.87.06-.99.06c-3.06.25-5.98.3-8.68.3h-4.77c-1.38 0-2.61.01-3.8.08-2.73.17-5.51.18-8.6.19h-2c-.58 0-1.18 0-1.76-.04l-1.92-.14-.33-.02-.32-.01-.18-.01c-.27-.01-.5-.02-.75-.05-.36-.03-.72-.1-1.11-.22a.97.97 0 00-.43-.12c-.17 0-.37.06-.59.16.05-.04.1-.1.1-.11l.1-.7c.08-1.25.16-2.5.26-3.74.24-3.07.55-6.08.88-9.4l.22-2.04c.23-2.2.41-4.4.6-6.6l.03-.31.01-.22.04-.39.15-1.73.15-1.75c.15-1.57.28-3.13.4-4.7l.17-.07c.25.09.6.18.96.25l.48.1c.39.07.78.15 1.18.2l.81.15c.42.1.85.15 1.27.2.82.09 1.4.13 1.94.13h5.73c2.16 0 4.5-.02 6.93-.17l.7-.06 1.17-.08.73-.03.37-.01.88-.04c.5-.02 1-.06 1.48-.1l.57-.04c.56-.05 1.1-.07 1.65-.1l.53-.01 2.12-.12c.51-.04 1.02-.05 1.53-.06h.3l.32-.01c1.87-.09 3.26-.18 4.36-.27l1.12-.15.3-.04.27-.04.42-.05.43-.06c1.14-.13 2.29-.27 3.43-.37 1.51-.14 3.03-.3 4.53-.51l1.37-.16.4-.04.52-.06c.58-.05 1.14-.11 1.7-.2l.94-.13.93-.14.55-.09 1.45-.22 1.78-.29c1.95-.3 3.9-.62 5.86-.89l.43-.06 1-.14.67-.08.62-.08.7-.1.63-.08 1.98-.3.22-.03.75-.11.61-.1.48-.08 1.34-.2 5.72-.7 2.41-.27c1.97-.26 4.1-.63 5.23-.82l.37-.06.2-.04.28-.04.2-.03a186.37 186.37 0 015.26-.88l.14-.03v.02l.2-.03zm-59.53-39.68l.18-.02a98.7 98.7 0 013.51-.2h1.35l.85-.01a103.65 103.65 0 006.96-.3l1.96-.13 2.15-.16.88-.08c.45-.02.9-.06 1.32-.1a135.4 135.4 0 006.15-.82l.68-.1a98.62 98.62 0 013.2-.5l1.69-.22.2-.03c2.24-.32 4.5-.7 6.48-1.02l.76-.12 1.35-.23 1.38-.23c.93-.14 1.87-.3 2.8-.47l1.12-.21.89-.17 1.1-.2 1.15-.23c2-.4 3.17-.67 4.18-.95.56-.13 1.12-.28 1.67-.43.89-.24 1.77-.47 2.65-.64 1-.26 2.02-.45 3.02-.65l.26-.05.3-.06.35-.07.25-.05.37-.07c1.24-.25 2.47-.52 3.7-.8 5.6-1.24 10.9-3.16 16.01-5.03l.23-.08.26-.1a74.8 74.8 0 011.6-.55l.46-.16.93-.32c.62-.22 1.22-.46 1.84-.7l.15-.06.48-.19.18-.07.66-.26.68-.28.26-.1c.63-.25 1.36-.54 2.07-.76 1.1-.32 2.2-.66 3.28-1.02.1-.03.2-.07.32-.14l-.12.22.1 1.24.17 1.74c.1 1 .2 1.99.28 2.99l.09 1.03.13 1.43c.15 1.45.28 2.9.42 4.36l.16 1.76c.18 1.85.4 3.7.62 5.53.24 2.02.46 4.04.67 6.05l.09.9.29 2.83c-.07-.18-.25-.27-.51-.27a51.8 51.8 0 00-2.56.63c-.57.16-1.12.36-1.68.57l-.28.1-.44.17-.18.06-.3.11c-.9.33-1.97.72-3 1.05l-4.25 1.25c-1.1.3-2.2.68-3.14 1.02l-.18.06-.17.06-.68.24-.2.07-.2.06c-1.36.45-2.53.84-3.73 1.15-1.85.43-3.1.7-4.2.89l-.57.11-.28.08-.25.02c-.37.07-.73.14-1.1.18l-1.08.16-1.08.15a126 126 0 00-7.1 1.24l-.2.03-.79.15c-1.18.24-2.38.48-3.57.7l-1.08.19-.32.06c-1.86.34-3.79.68-5.7.96-1.33.16-2.67.3-4 .44a199.85 199.85 0 00-9.5 1.17c-1.02.16-2.05.39-2.96.6-.3.09-.57.13-.84.18l-.31.06-.26.05c-.76.15-1.52.27-2.28.39a841.5 841.5 0 01-10.16 1.21l-.53.05-2.24.24c-1.47.16-2.92.37-4.37.58l-.34.12-.34-.01-.42.05c-.92.1-1.88.21-2.82.28l-2.1.12-.84.05-1.24.07-.25.01-2.08.15-2.24.17c-1.17.09-2.39.12-3.56.15l-.82.01-1.78.08-.37.02c-.72.04-1.43.08-2.15.1l-.9.01c-.98 0-1.97-.03-2.96-.07l-.45-.02a258 258 0 00-7.68-.1h-2.24a34.11 34.11 0 01-4.03-.23l-.28-.03-.76-.08-.77-.07.06-.19c.21-1.17.3-2.33.38-3.19l.3-3.55.2-2.6.24-2.76c.22-2.75.44-5.5.7-8.25l.3-2.99.14-1.38.36-3.5.26.16.5.1.58.04.5.05.43.07.2.03a10.9 10.9 0 001.26.14 14.53 14.53 0 011.62.19l.47.01h9.57c1.9 0 3.8 0 5.72-.02 1.38 0 2.74-.03 4.12-.1l1.45-.11.56-.04.19-.03v.01l.41-.03zm27.3-53.78l1.87-.26c1.02-.14 2.05-.25 3.08-.36l2.14-.23c1.45-.18 2.9-.42 4.31-.65l.2-.03 1.02-.17 1.62-.19.28-.03.46-.05.3-.04.32-.04c.5-.06.99-.12 1.48-.2 1.54-.28 2.97-.58 4.24-.89h.2c1.17-.28 2.3-.46 4.12-.71l.3-.05.21-.03.34-.06.3-.05c1.07-.17 2.18-.36 3.2-.6 1.7-.36 3.07-.72 4.34-1.13l2.88-.9 1.42-.45c.84-.27 1.7-.5 2.54-.73l.33-.1 1.26-.34.44-.12.35-.1.32-.08c1.48-.41 2.34-.66 3.22-.98 2.72-.91 5.45-1.8 8.19-2.69l.89-.29.24-.07c.93-.3 1.92-.6 2.9-1.02.8-.31 1.56-.75 2.34-1.2l.42-.24-.05.04.05.84c.22 1.88.44 3.75.62 5.64.35 3.7.74 7.38 1.13 11.07l.01.14.02.14c.1 1.03.2 2.06.28 3.09l.04.5.2 2.21.21 2.08.07.66.1 1.05.1.9.08.87a.27.27 0 00-.23-.1c-.05 0-.1 0-.18.05-.58.21-1.19.43-1.78.66-.75.28-1.5.56-2.25.82-1.6.56-2.92 1.03-4.24 1.55l-.67.27-.23.09-.28.1-.2.08-.64.26a86.3 86.3 0 01-4.56 1.44l-.26.09-1.34.38c-1.8.51-3.56 1.25-5.12 1.9l-.43.2c-.84.35-1.66.7-2.5 1.02-1.49.57-2.83 1-4.1 1.33l-4.02.95-.2.03-.56.12-1.31.27-.2.04-.57.1-1.56.32c-.93.2-1.86.4-2.78.62l-.52.12-.89.2c-2.64.59-5.33 1.07-8.47 1.51l-.34.05-.4.07c-1.06.16-2.05.32-3.03.5-1.26.24-2.53.46-3.8.67l-1.43.24c-1.92.32-3.85.64-5.78.92l-.67.1-.74.1-.69.08a67.7 67.7 0 01-4.1.43l-1.18.1-.59.06-.5.05-1.97.2-2.37.34-.92.12-.54.07-.55.07c-1.35.2-2.71.3-4.17.35-.86.04-1.71.08-2.57.14l-.54.03-1.34.07c-2.34.12-4.74.13-7.05.13h-2.31c-1.18 0-2.36 0-3.54.07l-.63.03-1.39.06h-.4a48 48 0 01-1.77-.04l-.7-.02-1.39-.04-.65-.02h-.21c-.42-.01-.82-.02-1.24-.05l-.8-.07-.3-.03a25.4 25.4 0 00-.77-.06l-.47-.03-.23-.02a14.73 14.73 0 01-1.95-.17l-.45-.08c-.6-.11-1.2-.22-1.83-.27l-.61-.1a1.58 1.58 0 00-.46-.09c-.1 0-.22.03-.37.08-.16.02-.32.08-.45.16l.2-1.05.22-1.43c.56-5.37 1.07-10.88 1.48-15.96.11-1.22.24-2.44.37-3.66l.18-1.81c.22-2.1.47-4.18.73-6.27l.06-.5c.02.04.1.05.13.06.5.04.99.1 1.48.16l.22.03c.62.07 1.21.1 1.82.11.58.01 1.15.06 1.73.12l.34.03c.6.06 1.2.11 1.8.14l.52.02c1.2.06 2.4.11 3.6.11h.45c1.23 0 2.45.01 3.67.05l.77.02.31.02h.33l.32.02h.49c.54 0 1.1-.03 1.64-.07l.38-.03.96-.07 1.15-.09h.14l1.74-.14 1.4-.11 1.04-.09 1.9-.14 1.7-.14c.8-.08 1.59-.14 2.4-.2.94-.06 1.9-.17 2.85-.27l.4-.05.33-.03.35-.04a88.2 88.2 0 013.65-.38h.25l.62-.05.98-.08.78-.06a73.44 73.44 0 004.25-.5h.14l.18-.04.17-.02h-.05l2.78-.38m-44.03-50.15h8.23c1.76 0 3.83 0 6.19-.12.68-.04 1.36-.06 2.05-.07h.32a56.3 56.3 0 001.86-.07l.37-.03.38-.02.37-.03.35-.03.37-.02.35-.03.4-.03a42.32 42.32 0 013.26-.2c.86-.03 1.7-.06 2.56-.14l1.14-.1.57-.05a83.1 83.1 0 012.32-.2c1.36-.1 2.73-.21 4.1-.36.97-.11 1.94-.27 2.9-.43l.45-.08c.3-.05.6-.1.88-.13l1.38-.17.69-.08c.94-.1 1.87-.21 2.8-.33l.15-.02 3.35-.5.17-.03.73-.12 1.74-.26.83-.13 1.74-.28c1.5-.24 2.96-.5 4.43-.8.8-.15 1.57-.33 2.35-.52l1.88-.35c3.2-.68 6-1.32 8.59-1.98l1.02-.24.82-.2.93-.23.76-.18c1.8-.43 3.6-.86 5.39-1.33l.37-.1.21-.05.23-.05.29-.07c1.15-.3 2.06-.53 3-.7.63-.14 1.24-.26 1.87-.37l.27-.05.23-.05a27.2 27.2 0 001.97-.45c.6-.12 1.37-.3 2.12-.58.75-.24 1.5-.5 2.24-.77.8-.3 1.62-.56 2.43-.82l.51-.17 1.17-.38c.89-.3 1.77-.63 2.64-.98.57-.23 1.14-.5 1.7-.76.2 2.76.54 6.11 1.12 11.2.2 1.56.36 3.12.53 4.67l.08.78c.1 1.05.2 1.9.3 2.7l.05.4c.13 1.04.25 2 .35 2.98l.02.2.04.32.06.49.57 5.18.22 1.87c-.03-.15-.17-.23-.41-.23-.24 0-.51.08-.78.22l-1.61.82c-1.1.56-2.1 1.07-3.11 1.52-1.09.42-2.42.94-3.74 1.3l-1.26.32a78.3 78.3 0 01-3.06.77l-1.38.27-.7.14-.19.04-.81.17-.2.03-.63.14-.3.1c-1.32.27-2.86.6-4.4 1-1.96.48-3.93.98-5.9 1.5l-.82.2-1.99.53-1.21.32-.33.08-.34.1-2.4.6-.75.17-.73.17-.66.14-.66.16-.19.04-.58.13-.67.15-1.83.4-.43.07-3.64.83-.7.17-.76.17a65.51 65.51 0 01-8.87 1.55l-.33.1-.54.02-.72.1-.27.03-.23.03-2.09.29c-1.4.17-2.81.34-4.23.49-.94.1-1.9.16-2.85.22l-.5.04-1.09.07-.74.06-.29.03c-2.27.18-4.83.37-7.4.63-.74.08-1.48.13-2.23.16l-.62.04-.47.02-1.09.06c-.67.04-1.34.1-2 .15-.72.06-1.45.12-2.17.15l-1.13.07-.31.02a51.81 51.81 0 01-4.89.14c-.46 0-.93.03-1.39.06l-.75.02a56.42 56.42 0 01-3.61.05l-.73-.04-.97-.04-.85-.02-1.05-.03-1.74-.1-.57-.01a31.38 31.38 0 01-2.96-.2l-.3-.03-.29-.02-.29-.02-.28-.02.14-.33a197.68 197.68 0 01.95-10.28l.03-.28c.57-4.06 1.07-7.75 1.5-11.71.2-1.9.36-3.89.48-5.42.07-1.1.16-2.18.26-3.28.3.13.62.14.9.14zm25.08-47.7l2.27-.06h.19c.9-.02 1.69-.04 2.48-.09l.53-.03c1.29-.08 2.57-.15 3.85-.28l1.3-.13.55-.06 2.4-.26c1.59-.19 3.18-.39 4.77-.63 1.39-.21 2.77-.41 4.16-.6a78.34 78.34 0 008.73-1.74l.83-.21.15-.04.6-.15a184.86 184.86 0 009.6-2.64l.57-.17 1.3-.4c1.36-.4 2.7-.82 4.05-1.26l.72-.22.36-.12.55-.18a78.93 78.93 0 004.36-1.48l.33-.12.56-.22 1.64-.6a89.7 89.7 0 013.74-1.25l.31-.1.7-.22c.8-.23 2.31-.66 3.58-1.26 1.7-.78 3.3-1.64 5.07-2.6.16-.1.27-.17.37-.26l.19-.11.2-.1a.6.6 0 00-.12.14l.03.93.19 2.44c.12 1.73.28 3.75.48 5.74l.14 1.13.03.17.03.26.04.27.07.61.34 3 .27 2.41.37 3.27c.15 1.42.25 2.8.34 4.17l.11 1.54.11 1.37.1 1.15.01.26-.14.01c-.3 0-.55.12-.78.24l-1.22.57-.2.1-.23.1-1 .47c-.81.31-1.65.55-2.65.84l-1.26.37-.34.1c-1.34.4-2.68.8-4.01 1.24l-.5.16-.29.1-.16.04-.17.05-2.91.92c-1.36.4-2.8.77-4.26 1.14h-.19c-1.4.38-2.8.7-4.19 1.02l-1.4.3c-.99.2-1.97.42-2.95.67-.77.16-1.52.37-2.28.58l-.32.1-.15.04-.13.04-.3.09-1.06.3c-1.42.4-2.84.8-4.27 1.14-.95.23-1.91.49-2.88.75l-.15.04a80.99 80.99 0 01-5.67 1.36c-3.1.66-5.7 1.19-8.57 1.57l-.2.03-.2.03-1.77.2-2.53.3c-.85.1-1.7.24-2.55.37l-.58.1-1.37.2-1 .14-2.28.32a122.46 122.46 0 01-8.54.68c-.72.03-1.44.07-2.17.14l-.96.08-.33.02-.74.06c-1.35.12-2.8.18-4.31.18-1.12.02-2.25.02-3.38.02h-8.19l-.42-.01h-.44c-.2 0-.38 0-.56.02-.35.06-.62.12-.85.28l.07-.11a250.12 250.12 0 01.56-6.72c.14-1.46.31-2.9.49-4.35l.33-2.25.29-1.96c.33-2.14.65-4.27.93-6.4l-.18.06.1-.29.14-.48c.2-1.36.34-2.71.47-4.03l.03-.28.25-2.2.02-.25.04-.28.1-.8c.15.24.34.37.56.42l.38.07.33.05.26.04.16.03.17.02.54.1c.94.15 1.55.25 2.2.29.63.03 1.26.1 1.9.17.7.08 1.4.1 2.1.12.66 0 1.32.03 1.99.07l.43.01h.16l.6.03.97.03c.67 0 1.34.03 2 .05.8.04 1.56.07 2.32.07 1.24 0 2.47-.06 3.74-.11m-.96-56.44l4.39-.01c1.02-.01 2.03-.04 3.04-.07l.99-.02c1.23-.02 2.46-.05 3.69-.05h1.08l1.07.03 1.41.04.63.02h.15l.38.02.94.03h25.55c1.5 0 3 0 4.5.05l.54.02.54.02.52.02.53.03c.48.02.96.02 1.44.02h1.06c1.16 0 2.3.01 3.45.05.27 0 .53 0 .8.02l.44.03.87.04c.35.02.7.02 1.06.02h2.75l2.53-.01c1.35-.02 2.73-.06 4.35-.14l.2-.02-.15.42c-.02 1.3-.04 2.65.02 4.11l.08 1.83.02.65.11 2.44.02.25.01.16.01.16.01.2c.08 1.24.18 2.8.36 4.26.17 1.47.38 2.92.6 4.38-.03-.06-.1-.08-.15-.08-.17 0-.3.05-.51.16l-1.14.54-.36.17-.3.15-.94.45a36 36 0 00-1.1.46l-.3.13-.41.18-.53.23-.29.12-.38.16-.6.24-.23.1-.44.17-2.03.82a41.72 41.72 0 01-3.6 1.2l-.58.17-1.46.4-.18.05c-.79.21-1.57.42-2.35.66l-1.41.43-2.16.65-.64.2c-1.17.36-2.42.7-4.04 1.12-.65.16-1.3.34-1.94.52l-2.31.61c-1.15.27-2.3.5-3.45.73l-.49.09-.26.05-.21.05c-1.33.3-2.65.6-3.97.94l-1.07.24-.2.04-.18.05-.18.03c-.77.18-1.54.36-2.32.49l-2.23.37-.7.12-1.4.22-1.1.2-.17.02-.73.1-.8.14-.15.03c-.36.07-.72.13-1.1.18l-.6.09a97.5 97.5 0 00-3.5.55l-.22.1h-.11c-.24 0-.3.02-.35.05l-1.08.1c-.93.09-1.88.18-2.83.24l-.21.02c-.51.03-.95.06-1.38.07l-.68.05-1.8.12a59.5 59.5 0 01-4.22.26h-.58l-1.45.04c-.67.03-1.34.08-2.01.14-.42.04-.8.06-1.18.08l-.42.03-.44.02a59.26 59.26 0 01-5.2.16h-.72c-.2 0-.41.02-.62.04h-.28l-.18.01-.17.02-.24.02a32.88 32.88 0 01-1.9.05h-.28l-1.87.01h-.63c-.2-.07-.38-.1-.54-.1-.3 0-.49.02-.7.05l.2-.82.2-2.03a191.33 191.33 0 00.57-7.38l.07-1.25.16-2.71.08-1.39.08-1.36c.11-1.79.25-3.59.39-5.38l.13-1.85.14-1.85.04-.53.04-.52c.08-1.07.15-2.13.2-3.18.06-1.23.05-2.37.03-3.47v-.2l-.01-.6c0-.26-.07-.5-.19-.72l.12.14.3.04c.66 0 1.32-.02 1.98-.06l.8-.05c.97-.07 2.24-.15 3.52-.15h8.64zm60.9-28.7c.5-.02.98-.06 1.47-.1l.24-.01.2-.02c.67-.05 1.34-.1 2-.1l.27.01c.72.02 1.43.03 2.13.07l1.08.07.36.02.37.02.36.03c1.1.05 2.18.07 3.25.07 1.83 0 3.65-.06 5.47-.12.94-.03 1.86-.04 2.8-.04l.92.01h.93c1.47 0 2.94.01 4.39.05l.84.02c.58.02 1.15.04 1.73.04h.17l-.1 1.63.01 1.9.02 1.03c0 1.04.01 2.09-.03 3.13-.06 1.46-.12 2.92-.13 4.38v.64a40.8 40.8 0 01-.13 3.48c-.07.97-.13 1.67-.12 2.4v.23l.01.16a11.81 11.81 0 01-.05 1.49l-.02.17-.03.3c-.07.75-.1 1.49-.12 2.23v.9c0 .49 0 .98-.03 1.46-.58-.13-1.22-.13-1.84-.13h-2.1l-1.73.01h-5.96c-1.16 0-2.31.09-3.23.15l-.57.01-.36.02c-1.21.1-2.5.12-3.94.13h-.22l-.28.01-.27.02h-.25l-.26.02h-.25l-.3.03-.6.03c-.73.02-1.45.04-2.17.04l-2.8.02H519.11c-.39 0-.77-.02-1.16-.05l-.91-.05c-1.34-.04-2.67-.05-4-.06h-2.01l-.41-.01-.41-.01-.44-.03-.84-.04a146.8 146.8 0 00-4.88-.07h-25.14c-.8 0-1.6-.02-2.41-.05l-.39-.02h-.2c-.49-.03-.93-.04-1.36-.05h-1.71l-.78-.02c-.7 0-1.4 0-2.11.03l-.55.01c-1.29.05-2.5.08-3.71.1h-13.33c-1.17 0-2.48.06-4.26.18-1.13.09-2.28.1-3.4.12l-.7.01c-.66 0-1.3.04-1.96.07l-.5.02c-.55.03-1.05.05-1.55.05-1.34.02-2.67.02-4 .02h-.9c-1.06 0-2.12 0-3.16-.06l-.62-.03c-.3 0-.54.07-.78.22-.01-.08-.12-.11-.14-.12a4 4 0 00-1.14-.2h-.16l.12-.07.01-.3v-2.1c.01-1.35.02-2.69.07-4.03l.03-.57v-.17c.03-.4.04-.81.04-1.21l-.07-2.22a73.39 73.39 0 01-.07-3.08l-.01-1.22c0-.45-.02-.9-.04-1.35v-.44l-.02-.46a94.25 94.25 0 01.02-7.8c.4.15.86.15 1.31.15h1.01a82 82 0 003.8-.13c.34-.03.69-.03 1.02-.03h2.83c1.37-.02 2.75-.06 4.13-.13.83-.03 1.66-.03 2.48-.03l1.67-.01 1.96-.07.38-.02.32-.01 1.53-.03 1.43-.02c.96 0 1.9 0 2.85-.03l1.62-.07.53-.03c.54-.02 1.09-.02 1.63-.02h.66c1.64 0 2.93-.04 4.19-.1.9-.04 1.8-.06 2.7-.06l.84.01h11.8c1.56 0 3.92-.01 6.39-.1 1.23-.05 2.48-.06 3.71-.06h25.93c1.87 0 3.72 0 5.58-.06m-91.93-43.35l.27-.21.16-.14.21-.2c.28-.26.55-.53.8-.83l.36-.41.35-.41c.13-.17.29-.33.44-.48l.31-.31c.32-.33.62-.69.91-1.03.38-.45.79-.88 1.2-1.3.33-.35.66-.71.97-1.08l.18-.2.11-.12c.42-.5.83-.98 1.29-1.44l.4-.4.14-.15.27-.29.56-.57 1.4-1.53.71-.8.36-.39.2-.21c.43-.5.86-.98 1.31-1.45 1.78-1.91 3.69-3.79 5.48-5.53l.14-.13.15-.14.82-.8.44-.43.47-.45 1.34-1.28c.53-.5 1.05-1.02 1.57-1.55l.31-.3.18-.18c.35-.36.7-.71 1.07-1.06l1.53-1.46.28-.26.24-.22.14-.14c.31-.29.62-.58.91-.88l1.3-1.31.33-.34 1.37-1.38c1.02-1.05 2.02-2.12 3.02-3.19l.55-.6.38-.4a112.53 112.53 0 014.97-5.07l1.24-1.23.42-.41.24-.25c.37-.39.74-.76 1.12-1.12l1.19-1.15 1.88-1.84c.46-.47.95-.92 1.46-1.36l.13-.12.15-.13c.44-.39.88-.78 1.31-1.2.7-.69 1.47-1.32 2.05-1.8l.2-.16.99-.86c.74-.65 1.46-1.34 2.15-2.03l.18-.17.78-.76c.67-.66 1.4-1.33 2.28-2.04.36-.28.69-.59 1.02-.9l.56-.52c.2.39.5.7.84 1.02.5.48 1 .96 1.45 1.47.9.97 1.85 1.92 2.78 2.84l.14.14c.5.5.99.98 1.46 1.48l.21.23.2.2.12.14.16.18.7.75.55.57.83.84c.37.4.72.81 1.08 1.23l.3.38a30.3 30.3 0 002.88 2.92l.51.46.26.24.6.56c.46.41.92.83 1.34 1.28.58.6 1.18 1.17 1.78 1.74l.18.18.8.76.8.76.4.37.3.28.29.27 1.2 1.14 1 .94.23.21c.55.52 1.1 1.03 1.61 1.59.93 1 2.02 2 2.88 2.76.46.4.91.83 1.36 1.25l.2.18.18.18.19.18.2.2.81.77.53.5.17.15.17.16.57.53.6.57.16.16.82.78.6.54a81.34 81.34 0 011.68 1.56l.65.62 1.52 1.4.6.51c.28.24.55.47.8.71a111.3 111.3 0 012.95 2.83l1.77 1.71 1.05 1.03c.66.63 1.33 1.25 2 1.86l.99.91 1.1 1.04.27.27.33.32c.4.4.8.78 1.21 1.16l1.24 1.17.19.18c.48.46.97.93 1.47 1.37l.48.41.24.21.24.2.48.42c.4.36.79.73 1.17 1.1l.15.14.36.36c.23.24.47.48.73.7l.2.18.18.16.59.53c.45.43.9.88 1.33 1.34l.13.13c-.13.04-.21.28-.2.54.03.93.04 1.86.04 2.8 0 .3.02.6.04.91v.18l.02.18.01.18.01.17.01.16.03.34.04.65.05.85.06 1.08.01.24-.12-.05c-.83-.14-1.72-.15-2.5-.15h-5.6c-.38 0-.77 0-1.16-.02a75.46 75.46 0 01-2-.12l-.93-.03-.97.03h-.48l-1.33.03h-.38l-1.25-.03a47.59 47.59 0 00-2.81-.02 51.19 51.19 0 01-4.18.02h-.37l-.36-.01h-.37l-.36-.01-.73-.01h-.36l-.36-.01h-.36l-.37-.01h-1.7c-.34 0-.68 0-1.02-.02-.7-.04-1.4-.06-2.1-.06-1.26-.02-2.54-.02-3.8-.02h-8.64l-2.43.05c-.71.03-1.3.04-1.88.05-.34 0-.66.02-.98.03l-.74.02-.51.02-2.12.02h-6.37c-.72 0-1.44 0-2.16.03-1.41.05-2.83.06-4.24.07h-10.5c-.89 0-1.77 0-2.65-.04-1.36-.04-2.7-.05-4.07-.06h-4.78c-.83 0-1.65-.02-2.47-.04h-.18l-.47-.01h-.27l-.72-.03c-1.29-.02-2.57-.02-3.86-.02h-7.65l-.24-.02-.3-.02-1.15-.04h-1.15a20.32 20.32 0 01-1.35-.04l-.63-.02-.51-.01-1.13.06h-1.53l-.4-.01h-1.24a72.64 72.64 0 00-2.61.06l-.6.02-.43.02h-3.13c.07-.67.08-1.39.04-2.2l-.1-2.5-.01-.42-.01-.14V125.6l.01-.33c.02-.32.03-.65.02-.98l.23-.16-.04.03zm56.52-60.74l-.36.32c-.29.27-.6.52-.9.77l-.68.57c-.6.53-1.17 1.1-1.74 1.66l-.12.12c-.41.41-.82.82-1.25 1.21-.9.87-1.78 1.62-3.16 2.78l-.12.1c-.54.45-1.05.9-1.54 1.39-.5.5-1.04.97-1.58 1.43-.7.62-1.38 1.3-2.03 1.95l-.99.97-.33.3-1.25 1.2c-.28.27-.54.55-.8.83l-.65.65c-.44.45-.88.89-1.33 1.32l-.34.33-1.37 1.34a135.18 135.18 0 00-3.02 3.12l-1.08 1.16-.59.62-.52.56-.7.76c-.6.66-1.23 1.3-1.86 1.93l-.2.2-.2.2-.39.39-.36.36-.72.73-.72.73c-.35.35-.71.69-1.07 1.02l-.54.5c-1.06 1-2.1 2.02-3.12 3.05-1 1-2.02 2-3.06 2.96-.7.66-1.36 1.32-2.04 2l-.97.96-.21.2-.19.2a112.1 112.1 0 00-6.19 6.48l-.2.23-.23.25-.3.33-.93 1.02-.7.74-.15.14-.53.53c-.44.46-.86.93-1.27 1.41l-1.2 1.35c-.43.45-.84.9-1.24 1.35-.29.34-.58.67-.88.99-.3.3-.54.53-.74.78l-.15.18a18.97 18.97 0 01-1.46 1.56l-.2.18-.5.4c-.3.29-.46.69-.45 1.12-.24.24-.38.58-.37.94.01.4 0 .8-.03 1.2-.01.32 0 .6.01.89l.01.38.02.5c.02.7.04 1.37.08 2.04.05.9.05 1.8.04 2.7v.79c0 .7.46 1.3 1.13 1.45.25.27.6.42.98.42h1.35a86.7 86.7 0 004.99-.1h3.72c.97 0 1.94 0 2.91-.03h.18l.2.02.91.02h.93c.58 0 1.14.01 1.7.04-.14.3-.16.61-.18.97l-.05.87-.06 2.28c-.02 1.45-.02 2.9-.01 4.36 0 .74.03 1.48.06 2.21l.01.25v.16c.03.54.04 1.05.05 1.57l.03 3.44v4.14a73.91 73.91 0 01-.11 3.86l-.01.3-.02.67-.05.77-.06 1a63.7 63.7 0 00-.05 2.86v.32c0 .23.06.46.17.65-.3-.2-.55-.2-.8-.2-.5.01-1 .03-1.48.06l-.6.02c-1.38.06-2.75.08-4.14.09h-1.8c-.5 0-1.02.02-1.52.05l-.51.03c-1.23.06-2.44.07-3.65.07h-.8c-.67 0-1.33 0-1.99.07-.37.06-.76.14-1.07.45-.3.32-.46.72-.46 1.1 0 .08 0 .16.02.23-.1.17-.17.4-.18.66a97.6 97.6 0 00-.13 4.45v.43c-.01.51-.02 1.02 0 1.53l.04.91.03.42.02.8c.04 1.32.05 2.64.06 3.97v.44c0 .66.03 1.32.07 1.97a32.21 32.21 0 01.02 3.74 44.7 44.7 0 00-.06 1.51l-.03 2.87v2.6c0 .41 0 .78.11 1.22.16.6.6.96 1.03 1.28.17.13.32.22.46.25.38.19.57.23.76.23.18 0 .36-.03.53-.06l.23-.03.2.04c.16.06.3.1.48.1.27 0 .53-.07.77-.24.06.11.28.2.56.23.28 0 .57.02.85.04l.3.02.56.02.2-.09a7.99 7.99 0 011.9-.21 8 8 0 012.06.26l.17.04h2.23c.83-.01 1.65-.05 2.47-.08l.56-.03c-.18.04-.26.18-.26.45l.03 2.59c0 .87-.04 1.74-.1 2.6v.2c-.12 1.98-.27 3.96-.43 5.94l-.02.24a439.82 439.82 0 00-.57 8.29c-.05 1-.1 1.96-.17 2.92-.2 3.64-.45 7.56-.94 11.52a803.65 803.65 0 01-2.02 15.68c-.12.92-.22 1.86-.31 2.79l-.16 1.44-.34 3.1a463.4 463.4 0 01-.6 5.34l-.16 1.2-.14 1.06-.43 2.82c-.14.84-.28 1.67-.4 2.51l-.13.9-.04.29-.03.2-.03.26c-.2 1.37-.4 2.79-.54 4.18-.23 2.36-.43 4.73-.62 7.1v.19a860.24 860.24 0 01-.66 7.72c-.05.8-.12 1.6-.2 2.4l-.24 2.83-.23 2.76-.13 1.45-.36 4.35a194.35 194.35 0 01-1.44 13.92l-.03.42-.14.77-.12.89-.45 3.38c-.15 1.21-.37 3.22-.6 5.93-.18 2-.3 3.92-.44 5.85l-.05.72-.04.64-.3 4.57c-.13 1.7-.33 3.44-.5 4.84l-.04.38-.45 4.36-.03.25-.16 1.57c-.12 1.11-.26 2.24-.4 3.36l-.07.57-.17 1.33-.52 4.83-.07.7-.08.7c-.18 1.85-.35 3.7-.5 5.55l-.28 3.07-.11 1.23-.13 1.34c-.33 4.04-.7 8-1.15 12.07l-.27 2.76-.28 2.75c-.15 1.49-.3 2.97-.43 4.45l-.15 1.5-.54 5.9c-.16 1.7-.34 3.38-.53 5.07l-.08.68c-.25 2.32-.46 4.77-.63 6.75l-.02.3-.06.66-.04.4-.05.65-.23 2.76-.15 1.89-.16 1.92c-.2 2.54-.4 5.06-.65 7.6-.23 2.45-.44 4.9-.64 7.37l-.18 1.9-.16 1.87-.24 2.82-.73 8.37-.24 2.72-.22 2.59-.16 1.86c-.1 1.25-.2 2.5-.33 3.74l-.05.45c-.16 1.77-.32 3.5-.5 5.24l-.22 2.23-.32 3.33-.1.97c-.14 1.63-.28 3.27-.4 4.91l-.04.74a242.49 242.49 0 01-.62 7.87l-.02.26-.01.15c-.23 2.5-.45 4.96-.63 7.41-.18 2.55-.41 5.15-.65 7.68l-.03.32-.03.23-.01.2-.02.19-.02.14-.08.83-.06.57-.05.51c-.1 1.22-.24 2.44-.37 3.66l-.2 1.76-.09.86-.17 1.5-.12 1.52-.13 1.53-.1 1.08a372.45 372.45 0 01-.48 5.22l-.05.36-.12 1.09-.19 1.9-.09.95c-.09.94-.19 1.87-.3 2.8l-.03.36-.1.94-.15 1.33c-.08.72-.14 1.45-.2 2.18l-.04.53-.2 2.37-.09.88c-.03.48-.07.96-.13 1.44-.1.93-.19 1.87-.26 2.8l-.14 1.48-.05.53-.06.53-.08 1.1-.15 1.74-.2 2.06-.06.7c-.1 1.06-.2 2.12-.32 3.18l-.1.89c-.08.6-.13 1.09-.18 1.58-.05.5-.08 1.01-.1 1.52-.3.33-.64.67-1.01 1l.27.3c.33.17 2.09 1.06 4.37 2.01.13.1.26.16.4.19l.23.08c1.45.62 2.92 1.21 4.4 1.8l.14.06.22.08c1 .4 2.82 1.14 4.49 1.6.75.22 1.52.43 2.29.63l.17.05.54.14 1.95.53 4.65 1.28.68.2 1.65.45 1.09.27.22.06.28.06.79.19.94.22.84.2.33.08.35.09 2.74.65c1.27.28 2.55.52 3.83.76l1.3.24 2.43.44 1.44.22.35.05.72.11 2.1.32.3.05.7.1a166.42 166.42 0 007.55 1.09c1.79.2 3.58.37 5.37.52l1.65.13.26.03.7.06a125.2 125.2 0 004.47.31l.81.03.5.02a51 51 0 002.25.09h6.41c3.34-.01 6.76-.02 10.06-.11 1.5-.05 3-.12 4.5-.2l.88-.05 2.52-.11c1.06-.04 2.12-.09 3.17-.15 1.01-.06 2.03-.15 3.05-.24l.36-.03.35-.03 1.4-.13c1.8-.18 3.62-.43 5.55-.7l1.46-.18c3.05-.4 6.1-.78 9.13-1.23a102.12 102.12 0 0013.7-2.88l1.84-.5 1.43-.36.91-.24 2.97-.76c1.77-.47 3.52-.95 5.28-1.44l1.77-.5.39-.1.6-.18.46-.13 2.01-.57c2.4-.63 4.94-1.48 6.8-2.11l.86-.3 1.94-.63.21.03.31-.14c.28-.1.57-.2.86-.28l.25-.04.71-.1.34-.05.1-.62-.04-.46-.14-1.1-.03-.23-.07-.43-.1-1.18-.02-.3a24.46 24.46 0 00-.33-2.54l-.09-.52-.05-.46-.11-.83-.1-1.06-.02-.29-.06-.68-.06-.75c-.04-.42-.08-.78-.1-1.13-.03-.3-.04-.61-.06-.92l-.04-.74c-.17-2.1-.48-4.33-.7-5.95l-.04-.23-.03-.23-.07-.42-.04-.27-.12-.9-.14-.98c-.1-.85-.23-1.7-.36-2.54l-.18-1.37-.1-.79a229.8 229.8 0 01-.63-6.1l-.06-.61-.06-.62-.06-.58-.15-1.42c-.1-.95-.23-1.88-.36-2.81l-.04-.34-.05-.3a325.8 325.8 0 01-.74-6.53l-.03-.33c-.23-2.1-.48-4.47-.8-6.91-.14-1.08-.28-2.14-.45-3.21-.07-.61-.16-1.22-.24-1.82l-.16-1.28-.08-.58-.03-.22-.1-.75-.02-.18-.13-1.11-.17-1.2c-.23-1.83-.47-3.67-.72-5.5-.2-1.61-.43-3.23-.66-4.84l-.04-.23-.15-1.2a425.38 425.38 0 00-.9-7.08l-.03-.3-.1-.85-.12-.86-.1-.84-.44-3.69-.03-.24-.03-.29c-.3-2.46-.6-4.91-.86-7.37-.1-.96-.21-1.92-.34-2.88l-.02-.17-.06-.64-.24-2.07-.06-.55-.05-.56-.07-.63-.06-.55a136.9 136.9 0 00-.39-3.37c-.24-2.01-.49-4.03-.7-6.05l-.1-.92-.08-.82-.02-.18-.01-.17-.04-.3-.16-1.4-.2-1.7-.06-.62a236.5 236.5 0 01-.6-5.24l-.48-4.96-.07-.64-.23-2.72-.1-1.11-.21-2.25c-.1-1.05-.2-2.1-.28-3.15v-.15l-.02-.17-.17-2.05-.12-1.21c-.14-1.68-.3-3.27-.46-4.86l-.1-1.08-.1-.97-.07-.62-.3-2.85-.14-1.1-.14-1.18-.16-1.36-.28-2.44-.3-3.14-.05-.65-.08-.86-.09-.89-.59-6.12c-.13-1.48-.28-2.97-.44-4.45l-.15-1.49c-.1-.9-.17-1.8-.25-2.7l-.04-.6-.04-.45-.13-1.5-.1-1-.09-1-.06-.74-.06-.55-.21-2.42c-.36-4.25-.7-7.97-1.1-11.72-.2-1.94-.38-3.87-.54-5.8-.18-2.06-.4-4.13-.62-6.18a763.3 763.3 0 01-.52-5.16c-.21-2.2-.43-4.38-.68-6.56l-.18-1.51-.08-.68c-.13-1.1-.25-2.12-.35-3.15l-.2-2.08c-.12-1.38-.25-2.76-.4-4.14l-.1-1-.09-.9-.04-.46a184.8 184.8 0 00-.61-5.24l-.1-.72-.37-2.97-.66-5.82c-.16-1.37-.31-2.74-.48-4.1l-.23-1.98-.2-1.96-.13-1.06a173.15 173.15 0 00-.55-5.04l-.03-.16-.09-.76-.1-.79-.16-1.48c-.37-3.36-.68-6.88-.95-9.92l-.08-.76-.02-.32-.04-.47c-.17-1.9-.33-3.82-.48-5.73l-.02-.23-.04-.48-.43-5.04c-.35-4.01-.66-7.7-.92-11.25-.12-1.84-.35-3.74-.56-5.53l-.03-.18a207 207 0 01-.29-2.6l-.06-.56-.09-.76-.22-1.78c-.24-1.96-.41-3.87-.53-5.3a739.83 739.83 0 01-.64-8.5l-.01-.29-.17-2.6-.06-.84-.03-.49c-.1-1.5-.2-2.95-.35-4.4-.34-3.43-.83-7.34-1.45-11.64-.31-2.69-.52-5.34-.6-7.89l-.03-.67-.03-.64-.03-.62-.08-1.92c-.04-1.1-.02-2.17 0-3.24l.01-.74c.01.12.13.12.23.12l.61-.02 1.02-.06c1.32-.11 2.39-.16 3.36-.16h1.06a7.9 7.9 0 012.99 0h4.4a62.15 62.15 0 014.7.14c.9 0 1.54-.82 1.54-1.55 0-.15-.04-.32-.1-.5.33-.1.56-.5.6-1.07.03-.4.03-.83.02-1.24v-.71c0-.6.02-1.2.06-1.8l.04-.38.03-.44.02-.27a13.51 13.51 0 00.08-1.96v-.9l.01-.4.02-.27.01-.17.04-.46.06-.66c.05-.7.08-1.42.1-2.14v-1.42c.01-.95.02-1.9.05-2.86 0-.32.03-.65.04-.98l.01-.34.02-.3.01-.22.02-.65v-2.63c0-1.82-.01-3.59-.12-5.3a1.69 1.69 0 00-1.3-1.53c-.17-.36-.64-.62-1.13-.62l-.71.01c-.76 0-1.5-.02-2.26-.05a64 64 0 00-1.47-.04c-1.44-.02-2.88-.02-4.32-.02-1.5 0-3 .02-4.5.07-1.25.05-3.43-.1-4.68-.1-.72 0-2.16 0-4.3.03l-.23-.01-.37-.02a38.68 38.68 0 00-3.42-.07l-1.2.07-1.03.07c-.72.05-1.44.07-2.16.08l-3.39.03h-29.47l-.97.05-1.22.05c-1.53.05-3 .06-4.47.06h-13.88l-1.31.01a29.93 29.93 0 00-2.09.08c-1.43.05-2.85.06-4.28.06-.79 0-1.58.04-2.38.07l-2.03.07h-1.66c-.88 0-1.76 0-2.63.05-.85.05-1.71.08-2.57.1.08-.1.12-.24.12-.43 0-1.19.01-2.58.1-4.1.05-.67.08-1.36.1-2.05 0-.27.02-.54.04-.8a92.73 92.73 0 00.07-4.26v-1.2c0-1.43 0-2.86-.02-4.28a89.61 89.61 0 00-.1-3.4c-.05-1-.04-2-.04-3v-.25c0-1.18 0-2.36.04-3.53 0-.56.04-1.13.07-1.7l.07-1.57.62.16H455.84c.7 0 1.4 0 2.09.02l.67.02c.45.03.9.04 1.36.05h3.89c2.5 0 4.93 0 7.11.09l1.73.02h1.34l1.34-.01h8.7a97.12 97.12 0 002.74-.06h.5l1-.03 2.63-.01h5.93l2.28-.05.52-.02.4-.01 1.2-.02.46-.01.5-.01.46-.01.48-.01a59.6 59.6 0 012.21-.05h9.96a99.67 99.67 0 013.37.06h.27c.35.02.68.04 1.01.04h2.16c1.44 0 2.88.04 4.31.08l.71.01c.6 0 1.22-.02 1.82-.04.55-.02 1.06-.04 1.57-.04h6.43c.54 0 1.1.03 1.64.07 1.25.07 2.43.11 3.61.11h4.58c1.01 0 2.2 0 3.37.08.43 0 .8-.16 1.1-.47a1.4 1.4 0 001.15-1.05c.1-.44.1-.87.08-1.29v-.3l-.07-1.02-.02-.44-.03-.45c-.02-.36-.04-.7-.08-1.06v-.2c-.05-.52-.08-1.04-.08-1.56 0-.96-.01-1.92-.05-2.88-.02-.33-.1-.58-.23-.79.33-.48.23-1.21-.25-1.72l-.44-.44-.18-.18-.1-.1c-.48-.5-.96-.97-1.43-1.38l-.23-.21c-.4-.35-.78-.69-1.13-1.06-.4-.44-.86-.86-1.31-1.27l-.69-.6-.37-.32-.16-.14a39.4 39.4 0 01-1.6-1.45l-1.28-1.2-1.7-1.63-.52-.5-.91-.88-.77-.7c-.26-.23-.52-.46-.76-.7l-2.82-2.7c-.46-.45-.92-.9-1.4-1.33a83.15 83.15 0 01-1.57-1.53l-1.46-1.41-.64-.55-.2-.17-.37-.34-.2-.17c-.92-.82-1.8-1.66-2.7-2.5l-.23-.24c-.51-.48-1.02-.94-1.55-1.4-.33-.29-.65-.6-.97-.91l-.16-.15-.4-.4-.86-.8-.85-.8-1.24-1.17-.4-.37-.18-.17c-.28-.28-.58-.56-.88-.82l-.55-.5-.24-.2-.7-.64c-.48-.45-.93-.93-1.38-1.4l-.12-.12-.12-.12-.3-.3c-.3-.32-.6-.63-.92-.92l-.32-.29c-.36-.33-.72-.66-1.07-1.01l-.32-.3-.37-.36-.76-.72a55.7 55.7 0 01-1.54-1.43l-.39-.38-.19-.19c-.36-.34-.61-.59-.88-.82-.42-.38-.8-.77-1.2-1.17l-.11-.12c-.3-.32-.62-.62-.94-.92l-.4-.39-1.13-1.04-.28-.25-.26-.23-.15-.14a24.2 24.2 0 01-2.6-2.69l-.34-.42-.35-.39-.49-.56c-.28-.3-.57-.6-.86-.88l-.55-.55c-.41-.43-.82-.87-1.23-1.33l-.16-.18c-.65-.71-1.34-1.38-2.01-2.04l-.23-.21-.67-.67c-.37-.37-.74-.76-1.1-1.15l-.32-.34c-.27-.3-.52-.56-.78-.82l-.84-.83-.16-.16c-.46-.44-.92-.9-1.36-1.37-.28-.3-.65-.45-1.06-.45-.2 0-.42.05-.62.15-.05-.09-.26-.16-.48-.16-.37 0-.7.14-1.09.46-.35.3-.7.63-1.05.96z"/>
		<path fill="#FFF" fill-rule="nonzero" d="M483.67 68.48c-.45.84-.86 1.7-1.27 2.56-.83 1.7-1.52 3.46-2.25 5.2-.56 1.28-1.17 2.54-1.76 3.82-.62 1.36-1.2 2.74-1.87 4.08-.63 1.28-1.24 2.58-1.85 3.87-.36.76-.72 1.53-1.04 2.31l-.4.94-.03.09-.06.15-.04.08-.1.25-.02.04c-.01.05-.04.1-.06.14l-.14.33c-.02.05-.05.1-.06.16l-1.7 3.86c-.56 1.3-1.1 2.6-1.7 3.89-.64 1.35-1.3 2.69-1.92 4.04-.6 1.3-1.18 2.6-1.75 3.9-.69 1.56-1.44 3.09-2.13 4.65l-.95 2.16c-.32.73-.72 1.42-1.07 2.14-.34.68-.19 1.5.5 1.9.62.36 1.56.18 1.9-.5.27-.55.57-1.1.85-1.66.29-.55.52-1.14.76-1.72.54-1.23 1.1-2.45 1.67-3.67 1.17-2.57 2.3-5.16 3.52-7.71l.97-2.04c.29-.62.55-1.25.84-1.88.61-1.37 1.2-2.76 1.8-4.13l.9-2.02c0-.04.03-.07.04-.11.06-.1.1-.2.13-.31.05-.08.08-.17.1-.26l.03-.04.08-.2c.04-.08.08-.16.1-.24.05-.08.08-.17.11-.25l.38-.93.05-.11.07-.2a2.2 2.2 0 01-.06.19c1.15-2.61 2.45-5.16 3.64-7.77.59-1.3 1.18-2.61 1.79-3.9.62-1.33 1.2-2.68 1.76-4.04l.05-.1.07-.18a91.12 91.12 0 011.73-3.81c.55-1.1 1.13-2.2 1.72-3.28l.07-.17.1-.23c.06-.12.14-.23.23-.34l.01-.02.16-.28a1.4 1.4 0 00-.5-1.9 1.35 1.35 0 00-.69-.19c-.48 0-.97.25-1.21.68l-1.5 2.76zM489.23 64.12c-.34.1-.65.33-.83.64-.17.3-.27.74-.14 1.07.41 1.06.84 2.11 1.28 3.16 1.12 2.7 2.19 5.41 3.13 8.18.44 1.31.84 2.65 1.29 3.96.44 1.26.95 2.5 1.42 3.74 1 2.64 1.87 5.34 2.87 7.98.26.68.54 1.36.78 2.04l.68 1.96 1.36 3.9 1.41 4.02c.46 1.3.88 2.59 1.34 3.88.4 1.09.7 2.2 1.05 3.3.4 1.27.84 2.51 1.24 3.76.2.58.34 1.17.55 1.74.14.35.3.63.64.83a1.39 1.39 0 001.9-.5c.18-.3.27-.74.14-1.07-.2-.55-.35-1.11-.52-1.66-.2-.63-.43-1.24-.63-1.85-.4-1.15-.74-2.32-1.08-3.48-.38-1.25-.85-2.45-1.27-3.68-.45-1.32-.9-2.64-1.37-3.95-.94-2.63-1.83-5.27-2.75-7.9-.24-.67-.5-1.33-.76-2l-.76-2.06c-.5-1.33-.93-2.7-1.41-4.03-.45-1.23-.9-2.47-1.4-3.69-.51-1.29-.94-2.6-1.37-3.91-.44-1.4-.9-2.8-1.4-4.17-.5-1.39-1.07-2.75-1.6-4.12-.33-.86-.69-1.71-1.05-2.55a113.22 113.22 0 01-1.03-2.56 1.5 1.5 0 00-.64-.83 1.38 1.38 0 00-1.07-.15M477.81 250.04c.05.78.1 1.57.1 2.35.01.69-.03 1.38-.06 2.07-.05 1.54-.15 3.08-.2 4.62-.05 1.51-.06 3.03-.07 4.54-.02 1.5-.07 2.98-.12 4.47-.09 2.46-.09 4.91-.1 7.37 0 2.53-.13 5.07-.3 7.6-.04.76.68 1.4 1.4 1.4.8 0 1.34-.64 1.39-1.4.1-1.56.19-3.13.24-4.7.05-1.5.05-3.02.06-4.54 0-1.48.01-2.97.05-4.45.04-1.52.12-3.03.14-4.55.04-2.49.04-4.98.16-7.47l.16-3.67c.02-.54.05-1.08.03-1.63-.02-.67-.06-1.34-.1-2.01-.04-.76-.6-1.4-1.39-1.4-.72 0-1.43.64-1.39 1.4M516.09 132.53c-.63.28-1.25.59-1.87.9-.66.36-1.31.71-1.9 1.2-.56.45-1.04.97-1.5 1.52-.48.57-.95 1.14-1.4 1.73a15.26 15.26 0 00-1.89 3.73c-.5 1.32-.72 2.75-.85 4.14a44.24 44.24 0 00-.15 3.98c-.01.75.07 1.47.25 2.2.15.61.35 1.2.5 1.82.11.59.23 1.17.4 1.74.22.67.55 1.29.86 1.91.23.49.44.98.72 1.45.22.4.47.78.75 1.15.73.97 1.6 1.86 2.44 2.73.42.43.86.81 1.34 1.17.37.27.78.5 1.17.77.5.42.98.88 1.54 1.2a1.4 1.4 0 001.9-.5 1.4 1.4 0 00-.5-1.9l-.27-.17c-.47-.4-.92-.8-1.43-1.14l-.93-.6c-.52-.44-.99-.93-1.46-1.43-.48-.52-.97-1.02-1.43-1.57-.36-.48-.68-1-.95-1.53-.18-.33-.33-.69-.5-1.03l-.44-.91c-.27-.73-.42-1.49-.58-2.25-.16-.76-.44-1.49-.58-2.25-.03-.41-.03-.82-.02-1.23l.02-1.68c.03-.86.08-1.72.19-2.57.17-1.1.46-2.2.88-3.23a10.66 10.66 0 011.56-2.78c.67-.85 1.38-1.7 2.21-2.42a30.9 30.9 0 013.32-1.75c.31-.13.55-.51.64-.83a1.4 1.4 0 00-1.31-1.75c-.25 0-.48.07-.73.18M482.71 148a1.38 1.38 0 00-.97 1.7c.1.38.33.61.64.83.49.36.97.66 1.55.84.53.17 1.08.25 1.62.4.73.2 1.5-.24 1.7-.97a1.4 1.4 0 00-.96-1.7c-.56-.16-1.13-.25-1.68-.43-.29-.15-.56-.34-.83-.54-.18-.13-.43-.19-.68-.19-.13 0-.27.02-.39.05"/>
		<path fill="#FFF" fill-rule="nonzero" d="M516.4 137.47c-.38.1-.6.34-.83.64a19.9 19.9 0 00-3.13 5.82c-.26.72.28 1.52.97 1.71.36.1.75.05 1.07-.14.33-.19.51-.48.64-.83.14-.39.3-.77.45-1.15a23.12 23.12 0 012.4-4 1.4 1.4 0 00-1.2-2.09c-.12 0-.25 0-.37.04M511.33 148.83c0 .76.63 1.4 1.4 1.4a1.4 1.4 0 001.38-1.4 1.4 1.4 0 00-1.39-1.39 1.4 1.4 0 00-1.39 1.4M498.66 137.87c.12 1.3-.02 2.61.06 3.92.08 1.38.08 2.76.08 4.14 0 1.28-.06 2.56-.07 3.84 0 .7.03 1.4 0 2.11-.04.65-.03 1.3-.06 1.95-.03.75-.06 1.5-.06 2.26 0 .68.06 1.34.1 2.02.02.55-.08 1.1-.1 1.65v1.57c0 .76.63 1.4 1.39 1.4a1.4 1.4 0 001.39-1.4c0-.85 0-1.7.08-2.55.05-.58-.03-1.15-.06-1.72-.03-.58-.02-1.17-.01-1.75 0-.65.05-1.29.06-1.93 0-.66.05-1.32.05-1.97 0-1.34-.01-2.68.05-4.02.03-.74.02-1.49.02-2.22 0-.82 0-1.64-.04-2.46-.03-.85-.09-1.7-.08-2.54 0-.37.03-.74.04-1.12 0-.4-.03-.79-.06-1.18-.04-.38-.13-.7-.41-.98a1.4 1.4 0 00-.98-.4c-.7 0-1.46.62-1.4 1.38M484.9 144.46c0 .76.64 1.39 1.4 1.39a1.4 1.4 0 001.39-1.4 1.4 1.4 0 00-1.4-1.38 1.4 1.4 0 00-1.38 1.39M480.84 144.84c0 .76.63 1.4 1.39 1.4a1.4 1.4 0 001.39-1.4 1.4 1.4 0 00-1.4-1.39 1.4 1.4 0 00-1.38 1.4"/>
		<path fill="#FFF" fill-rule="nonzero" d="M498.92 145.32c-.1.2-.19.37-.3.55-.46.54-.97 1.04-1.46 1.55-.49.52-1.01.98-1.57 1.41l-.94.72.04-.04-.15.12a24.64 24.64 0 01-3.89 2.39c-.88.34-1.79.6-2.64 1.02-.68.33-.86 1.28-.5 1.9.4.69 1.23.83 1.9.5l.26-.12c.62-.24 1.26-.43 1.88-.69a16.3 16.3 0 002.4-1.24 24.3 24.3 0 001.95-1.32l.29-.22.23-.18c.83-.62 1.69-1.23 2.41-1.98.38-.38.74-.78 1.11-1.17a7.55 7.55 0 001.38-1.8c.34-.67.19-1.5-.5-1.9a1.4 1.4 0 00-.7-.18c-.48 0-.97.23-1.2.68M597.32 126.23c-2.3.21-4.6.45-6.9.7.28.9.54 1.8.77 2.72l1.8-.2c1.75-.21 3.5-.34 5.26-.53l.85-.1c-.28-.9-.59-1.78-.91-2.67l-.87.08M581.9 127.86c-1.54.14-3.08.26-4.62.42.3.9.56 1.8.78 2.7 1.59-.14 3.17-.26 4.76-.44l1.38-.15c-.25-.9-.53-1.78-.8-2.67l-1.5.14M566.69 129.52l-2.44.28c.16.91.35 1.82.56 2.72.97-.11 1.93-.22 2.9-.35l2.37-.27 1.02-.13c-.25-.9-.55-1.8-.88-2.67l-3.53.42zM556.03 130.87l.37-.05-2.86.42.11-.02c-.77.1-1.54.2-2.3.34-.34.05-.67.35-.84.63-.19.33-.24.72-.14 1.08.1.34.33.64.64.83.35.2.69.2 1.07.13l1.19-.18c1-.13 1.99-.28 2.99-.43l-.37.05 2-.27-.18-.84c-.12-.62-.23-1.24-.32-1.87l-1.36.18M551.43 165.17c-.31.18-.55.48-.65.83-.1.36-.04.75.15 1.07.16.29.49.59.83.64.76.13 1.53.23 2.3.34l-.1-.02 2.86.41-.38-.05a252.9 252.9 0 003.66.49l-.06-2.79-1.52-.19-2.22-.3c.13 0 .24.03.37.04-1-.14-2-.3-3-.42l-1.17-.19a2.7 2.7 0 00-.4-.03c-.24 0-.45.04-.67.17M567.05 169.74h.05c2.85.34 5.7.7 8.56 1.03-.1-.94-.23-1.88-.33-2.81l-2.2-.26c-.87-.1-1.76-.23-2.64-.34-.79-.09-1.58-.17-2.36-.27l-1.12-.13.04 2.78M582.69 171.44c1.53.15 3.07.32 4.6.5l2.93.33c-.02-.45-.03-.9-.02-1.36 0-.48.02-.96.03-1.43l-7-.75a89 89 0 00-.88-.1c.12.94.24 1.88.34 2.81M487.98 247.97c.03.69.09 1.38.06 2.07-.03.66-.06 1.3-.12 1.96-.13 1.4-.18 2.8-.2 4.2v4.23c0 .65-.05 1.3-.07 1.94-.03.71-.04 1.43-.05 2.14 0 .66-.01 1.32-.05 1.98-.04.7-.1 1.4-.17 2.08l-.17 1.92c-.06.65-.08 1.3-.13 1.96-.04.62-.05 1.24-.07 1.86-.02.71-.07 1.42-.1 2.13-.03.64-.1 1.27-.17 1.91-.1.73-.14 1.46-.2 2.2-.07.76.68 1.39 1.39 1.39.36 0 .72-.15.98-.41.28-.27.37-.6.4-.98.07-.74.12-1.47.2-2.2.09-.68.15-1.35.18-2.03.03-.7.08-1.38.1-2.06.02-.66.04-1.31.08-1.96.05-.67.08-1.35.14-2.01l.18-1.95c.06-.7.12-1.4.15-2.1.04-.7.04-1.41.05-2.11 0-1.34.1-2.69.1-4.02 0-1.35 0-2.7.02-4.04 0-1.37.07-2.74.2-4.1.05-.64.08-1.28.1-1.93.04-.69-.02-1.38-.05-2.07-.05-.76-.6-1.4-1.4-1.4-.72 0-1.43.64-1.38 1.4M527.39 165.77c.63-.28 1.25-.59 1.86-.9.67-.36 1.31-.71 1.9-1.2.56-.45 1.04-.97 1.51-1.52.48-.57.95-1.14 1.4-1.73a15.26 15.26 0 001.88-3.73c.5-1.32.72-2.75.86-4.14.12-1.33.14-2.65.15-3.98 0-.75-.07-1.47-.25-2.2-.15-.61-.36-1.2-.5-1.82-.12-.59-.23-1.17-.41-1.74-.22-.67-.54-1.29-.85-1.91-.24-.49-.45-.98-.72-1.45-.23-.4-.48-.79-.75-1.15-.74-.97-1.6-1.86-2.44-2.73-.42-.43-.87-.81-1.35-1.17-.37-.27-.78-.5-1.16-.77-.5-.42-.98-.88-1.54-1.2a1.4 1.4 0 00-1.9.5 1.4 1.4 0 00.49 1.9l.27.17c.47.4.92.8 1.43 1.14l.93.6c.53.44 1 .93 1.46 1.43.48.52.98 1.02 1.43 1.57.36.48.68 1 .96 1.52l.49 1.04.44.91c.28.73.42 1.49.58 2.25.16.76.44 1.49.58 2.25.04.41.03.82.03 1.23l-.03 1.68c-.02.86-.08 1.72-.19 2.57-.16 1.1-.45 2.2-.87 3.23a10.66 10.66 0 01-1.56 2.78c-.68.85-1.39 1.7-2.22 2.42a31.1 31.1 0 01-3.32 1.75c-.3.13-.55.5-.63.83a1.4 1.4 0 001.3 1.75c.26 0 .49-.07.74-.18M436.38 169.08c-.02.77-.05 1.54-.05 2.31-.01.73.06 1.45.09 2.16.07 1.5.1 2.98.11 4.47.01 1.44 0 2.88.1 4.32.07 1.41.12 2.82.14 4.24.04 2.46.04 4.91.04 7.37 0 .76.63 1.4 1.39 1.4a1.4 1.4 0 001.39-1.4c0-2.8 0-5.59-.06-8.38-.03-1.44-.15-2.86-.19-4.3-.04-1.46-.02-2.94-.04-4.41a89.53 89.53 0 00-.13-3.8c-.03-.62-.07-1.24-.06-1.87l.05-2.1a1.4 1.4 0 00-1.4-1.4c-.77 0-1.36.64-1.38 1.4M445.4 168v4.23c0 1.43.01 2.86.15 4.29.26 2.7.26 5.4.46 8.1.06.75.12 1.5.16 2.24.05.75.05 1.5.08 2.27.06 1.39.18 2.78.23 4.18a1.4 1.4 0 001.39 1.39 1.4 1.4 0 001.39-1.39l-.1-1.82c-.06-.65-.07-1.3-.1-1.95-.04-.63-.05-1.27-.07-1.91-.03-.7-.08-1.38-.14-2.06-.1-1.33-.19-2.66-.22-4-.02-.67-.05-1.35-.1-2.02-.04-.66-.04-1.33-.1-1.99l-.2-2.41c-.07-.81-.06-1.62-.06-2.43V168a1.4 1.4 0 00-1.38-1.39 1.4 1.4 0 00-1.4 1.4M454.56 168.04c.03.72.1 1.45.13 2.18.03.7.04 1.42.08 2.12.08 1.42.17 2.83.24 4.25.08 1.43.17 2.88.2 4.32.03 1.42.02 2.85.03 4.27v7.35c0 .76.63 1.39 1.39 1.39a1.4 1.4 0 001.39-1.4v-8.06c0-1.43 0-2.86-.05-4.3-.06-1.45-.14-2.92-.22-4.37l-.22-3.85c-.04-.65-.04-1.3-.07-1.94-.03-.66-.1-1.31-.12-1.96a1.4 1.4 0 00-1.4-1.4c-.73 0-1.42.64-1.38 1.4M462.98 167.17c0 .7-.01 1.4.03 2.1.05.76.12 1.53.2 2.29.13 1.45.23 2.9.32 4.34.07 1.43.16 2.87.19 4.3.02 1.38-.05 2.74-.09 4.12-.02.72-.07 1.45-.1 2.17-.03.74-.03 1.47-.04 2.2v4.44c0 .76.63 1.4 1.39 1.4a1.4 1.4 0 001.39-1.4c0-2.7-.04-5.4.11-8.1.16-2.79.16-5.58-.03-8.36-.1-1.55-.2-3.1-.33-4.64-.06-.8-.15-1.6-.2-2.4-.06-.82-.05-1.64-.06-2.46a1.4 1.4 0 00-1.39-1.39c-.75 0-1.4.63-1.39 1.4M471.6 167.95c.01 1.47.05 2.93.17 4.4.12 1.4.21 2.83.28 4.25.06 1.4.16 2.8.22 4.22a289.72 289.72 0 01.08 6.64c0 .69-.05 1.38-.07 2.08-.06 1.49-.04 2.98-.11 4.47-.04.75.66 1.39 1.39 1.39.78 0 1.35-.64 1.39-1.4.07-1.37.05-2.74.1-4.11.01-.66.06-1.32.08-1.98v-2.06c0-2.83-.07-5.65-.26-8.48-.1-1.53-.15-3.07-.28-4.6-.14-1.6-.2-3.2-.21-4.82a1.4 1.4 0 00-1.4-1.39c-.74 0-1.39.64-1.38 1.39M482 165.98c-.35.1-.65.32-.83.63-.2.36-.2.69-.14 1.08l.01.1c.15 1.38 0 2.77.03 4.15.04 1.41.15 2.82.16 4.23.02 1.4.02 2.79.02 4.18 0 1.35.08 2.7.09 4.06v4.15c0 .75-.05 1.49-.07 2.23-.02.77-.06 1.53-.1 2.3-.02.75.67 1.38 1.4 1.38a1.4 1.4 0 001.39-1.39c.06-1.32.12-2.64.16-3.96.03-1.26 0-2.53 0-3.8 0-.6 0-1.22-.02-1.83-.01-.7-.06-1.38-.07-2.08-.02-1.43 0-2.85 0-4.28l-.04-2.41c-.03-.8-.1-1.6-.13-2.4a43 43 0 01.02-2.5c0-.45.02-.9 0-1.36-.03-.5-.1-1.01-.17-1.51-.06-.34-.37-.67-.64-.84a1.4 1.4 0 00-1.07-.13M491.3 167.07c.01.72.07 1.44.08 2.16l.03 2.08c.05 1.43.22 2.84.34 4.26.12 1.45.12 2.9.17 4.35.06 1.47.17 2.94.2 4.42.07 2.92.03 5.85.03 8.77 0 .76.63 1.4 1.39 1.4a1.4 1.4 0 001.39-1.4v-7.86c-.02-1.46-.1-2.91-.18-4.37-.07-1.46-.1-2.93-.15-4.4-.04-.78-.13-1.57-.2-2.35a66.6 66.6 0 01-.18-2.35c-.04-.8-.04-1.58-.05-2.38-.01-.77-.08-1.55-.08-2.33a1.41 1.41 0 00-1.4-1.4c-.75 0-1.4.64-1.38 1.4M501.47 167.41c.01 1.44.06 2.87.13 4.31.07 1.34.11 2.68.19 4.03.07 1.31.21 2.62.23 3.94l.01 4.14c.01.86.1 1.71.07 2.57-.04.87-.05 1.74-.06 2.6 0 .87-.04 1.74-.06 2.6-.04.98-.04 1.95-.04 2.92 0 .76.64 1.4 1.4 1.4a1.4 1.4 0 001.38-1.4c0-.8 0-1.59.02-2.38.01-.66.06-1.31.07-1.97.02-.7 0-1.4.02-2.1l.05-1.97c.03-.7-.04-1.4-.06-2.09-.02-.66 0-1.34 0-2-.01-1.34 0-2.68-.08-4.01l-.2-2.6c-.05-.83-.05-1.66-.1-2.5-.1-1.83-.18-3.66-.19-5.49a1.4 1.4 0 00-1.39-1.39c-.75 0-1.4.63-1.39 1.4M510.86 166.69a85.34 85.34 0 00-.04 4.27c0 1.4.12 2.8.23 4.2.12 1.46.13 2.92.08 4.4-.04 1.37-.04 2.76-.04 4.14v8.2c-.03.92-.12 1.83-.07 2.74.05.76.6 1.4 1.4 1.4.72 0 1.43-.64 1.38-1.4-.04-.7 0-1.42.03-2.12.03-.76.04-1.51.04-2.27v-4.3-4.32c.02-1.48.09-2.95.06-4.44-.03-1.72-.22-3.44-.3-5.16a64.45 64.45 0 010-5.34c.04-.76-.65-1.39-1.38-1.39a1.4 1.4 0 00-1.4 1.39M521.46 165.46c-.35.1-.65.33-.83.64-.2.35-.2.68-.14 1.07V167.2c.07.65.1 1.32.1 1.99l.06 2.12c.05 1.44.1 2.87.17 4.3.06 1.39.06 2.77.06 4.15 0 1.47-.08 2.94-.08 4.4 0 .74 0 1.47-.02 2.2-.03.8-.11 1.59-.14 2.38-.05 1.56-.12 3.1-.13 4.67 0 .76.64 1.38 1.4 1.38a1.4 1.4 0 001.38-1.38c0-.69 0-1.37.03-2.06.03-.68.07-1.36.08-2.04.03-1.32.17-2.63.17-3.95 0-2.86.14-5.72.06-8.58-.04-1.74-.15-3.48-.18-5.22-.02-.82-.07-1.65-.08-2.48-.01-.9-.08-1.77-.2-2.66-.05-.33-.36-.67-.64-.83a1.38 1.38 0 00-1.07-.14M530.84 166.35c0 .66.03 1.33 0 2-.02.7-.05 1.4-.06 2.11 0 1.45.07 2.89.07 4.33.02 1.42 0 2.83.06 4.24.02.7.01 1.38-.04 2.08-.06.64-.16 1.29-.2 1.94-.07.9-.05 1.82-.13 2.74-.08.95-.19 1.9-.21 2.85l-.09 2.65c-.03.94-.1 1.87-.16 2.8-.06.76.67 1.4 1.39 1.4.79 0 1.33-.64 1.39-1.4.03-.61.1-1.23.13-1.85.04-.63.04-1.26.07-1.9.03-.62.03-1.25.05-1.87.02-.64.09-1.27.14-1.9.06-.63.11-1.25.12-1.88.02-.65.04-1.3.1-1.95.06-.67.15-1.34.2-2 .07-.7.03-1.37 0-2.05-.08-2.05-.01-4.1-.06-6.14a53.85 53.85 0 01-.02-3.22c.03-.99.05-1.98.03-2.98a1.4 1.4 0 00-1.4-1.4c-.74 0-1.4.64-1.38 1.4M540.65 166.97v8.4c0 1.41.05 2.83-.01 4.22-.06 1.28-.1 2.55-.17 3.82-.04.8-.08 1.59-.09 2.38-.01.82-.07 1.63-.08 2.45-.02.8-.11 1.57-.16 2.35-.04.84-.08 1.68-.1 2.52-.03.76.64 1.4 1.39 1.4.77 0 1.36-.64 1.39-1.4.02-.68.06-1.35.09-2.02.01-.64.08-1.28.12-1.91l.07-1.81c.02-.65.06-1.3.07-1.95.02-1.3.13-2.6.18-3.89.05-1.3.08-2.58.08-3.87v-10.69a1.4 1.4 0 00-1.4-1.39 1.4 1.4 0 00-1.38 1.39M497.69 246.72c0 .78 0 1.56-.02 2.33-.02.76-.07 1.52-.1 2.27-.06 1.48-.07 2.97-.08 4.45 0 1.48 0 2.96-.02 4.44-.01 1.5-.1 3.01-.18 4.51-.23 4-.21 8.02-.22 12.03 0 .76.64 1.39 1.4 1.39a1.4 1.4 0 001.38-1.4c0-3.16 0-6.33.1-9.5.05-1.47.15-2.95.21-4.43.06-1.48.1-2.97.1-4.46.01-1.96.02-3.91.05-5.87.02-.9.06-1.82.1-2.72.06-1.02.06-2.03.06-3.04a1.4 1.4 0 00-1.4-1.4 1.4 1.4 0 00-1.38 1.4M507.85 140.72l-3.28.01c-1.17 0-2.33.05-3.5.06a1.4 1.4 0 00-1.38 1.39c0 .75.63 1.39 1.39 1.39 1.16 0 2.32-.06 3.49-.06l3.28-.01a1.4 1.4 0 001.39-1.4 1.4 1.4 0 00-1.38-1.38h-.01zM509.5 157.33c-1.5.11-3 .13-4.51.17-.77.03-1.54.02-2.3.02h-2.03a1.4 1.4 0 00-1.4 1.4c0 .74.64 1.4 1.4 1.39.79-.02 1.58-.02 2.37-.02l1.96-.01c.77-.01 1.53-.05 2.3-.08.74-.02 1.48-.04 2.21-.1.38-.02.7-.12.99-.4.25-.26.4-.61.4-.98 0-.7-.59-1.4-1.3-1.4h-.09"/>
		<path fill="#FFF" fill-rule="nonzero" d="M484.82 139.72c.49.09.96.22 1.43.4.23.1.45.22.66.37.56.47 1.06 1.02 1.52 1.6l.22.29c0-.02-.02-.03-.03-.05.33.43.63.86.86 1.34.22.59.35 1.2.44 1.84l-.01-.09.03.26c.09.66.14 1.34.08 2-.16.79-.44 1.55-.74 2.29-.17.36-.36.7-.6 1.02l.15-.2c-.44.56-.9 1.14-1.44 1.61-.12.08-.23.14-.36.2-.45.17-.91.32-1.37.48-.46.16-.9.31-1.37.41a6.34 6.34 0 01-2.13-.26 10.4 10.4 0 01-2.63-2.13 8 8 0 01-.7-1.22 5.86 5.86 0 01-.29-1.04 9.93 9.93 0 01-.02-1.84l.1-.7-.05.37a8.24 8.24 0 01.8-2.58c.14-.27.3-.52.49-.77.27-.33.55-.66.84-.98.37-.42.73-.9 1.15-1.27a8.75 8.75 0 011.52-.88c.3-.11.55-.25.74-.5.24 0 .47 0 .7.03m-.93-2.8c-.33.02-.66.05-.97.15-.44.14-.8.42-1.09.76l-.05.05c-.75.36-1.45.81-2.06 1.38-.32.3-.56.67-.86.98l-.77.89c-.32.38-.63.77-.9 1.18-.2.35-.36.73-.53 1.1-.2.46-.4.94-.55 1.42-.15.53-.21 1.08-.28 1.63l.01-.12c-.08.66-.14 1.3-.11 1.98.03.75.13 1.52.4 2.22a7.72 7.72 0 002.42 3.5c.55.46 1.12.9 1.72 1.31.37.25.8.43 1.21.58.32.12.7.14 1.04.2.86.14 1.66.2 2.52.04.56-.1 1.08-.31 1.61-.5.42-.15.86-.27 1.28-.44.28-.12.58-.23.84-.4.25-.17.48-.35.69-.55.36-.34.68-.72 1-1.1.36-.43.73-.88 1.02-1.37.3-.52.5-1.1.7-1.65.2-.52.4-1.04.5-1.58.26-1.21.13-2.42-.05-3.64l.05.37c-.11-.86-.24-1.7-.56-2.52a6.52 6.52 0 00-.55-1.11c-.2-.3-.42-.6-.64-.89l-.02-.02-.2-.26c0 .02.02.03.03.04-.88-1.13-1.85-2.33-3.2-2.9a8.7 8.7 0 00-3.65-.74"/>
		<path fill="#FFF" fill-rule="nonzero" d="M488.26 153c-.35.1-.65.34-.83.65-.2.35-.2.68-.14 1.06l.02.16c.07.82.09 1.65.13 2.48.05.85.14 1.7.21 2.54l.18 2.26c.07.87.17 1.73.17 2.6a1.4 1.4 0 001.4 1.4c.75 0 1.4-.64 1.38-1.4 0-.88-.1-1.75-.18-2.63l-.2-2.57c-.07-.88-.15-1.76-.2-2.65-.03-.42-.04-.85-.06-1.27-.03-.56-.1-1.1-.17-1.65-.05-.34-.36-.67-.64-.83a1.38 1.38 0 00-1.07-.15M477.46 153.2a209 209 0 00-.02 3.23c0 1.02.05 2.03.06 3.05.04 2.12-.01 4.25.03 6.37a1.4 1.4 0 001.4 1.39c.73 0 1.4-.63 1.38-1.4-.04-2.07 0-4.16-.03-6.24l-.06-3.14c0-1.09 0-2.17.02-3.26a1.4 1.4 0 00-1.39-1.39 1.4 1.4 0 00-1.39 1.39"/>
		<path fill="#FFF" fill-rule="nonzero" d="M476.56 153.27a15.36 15.36 0 00-3.47 4.64c-.45.92-.9 1.85-1.3 2.79-.15.36-.24.67-.13 1.07a1.38 1.38 0 001.7.97c.31-.08.7-.32.84-.63.3-.7.61-1.4.94-2.08a19.6 19.6 0 011.81-3.14c.49-.59 1-1.14 1.58-1.65.56-.51.52-1.45 0-1.97-.27-.27-.61-.4-.96-.4-.36 0-.72.14-1 .4M611.65 174.48c2.62.25 5.24.5 7.86.78l.68.07.04-2.77c-1.71-.19-3.43-.37-5.14-.53l-3.46-.33.02 2.78M497.89 259.38c-.73.13-1.46.26-2.17.46-.68.19-1.36.39-2.04.56-.63.16-1.27.32-1.91.44-.64.11-1.29.21-1.93.35-.64.14-1.3.28-1.94.44-.62.15-1.22.36-1.85.48-1.28.23-2.55.47-3.8.81-.78.2-1.55.38-2.32.56-.74.16-1.17 1-.98 1.7.22.76.98 1.14 1.71.97.64-.14 1.28-.26 1.9-.43.6-.16 1.22-.33 1.83-.47.64-.14 1.3-.28 1.94-.39.65-.1 1.26-.26 1.9-.44.61-.18 1.27-.3 1.9-.44a30.5 30.5 0 011.88-.38c1.36-.23 2.66-.6 3.99-.96l1.12-.3c.5-.12 1-.2 1.5-.28.75-.13 1.16-1.03.98-1.7a1.4 1.4 0 00-.64-.84 1.3 1.3 0 00-.68-.18c-.13 0-.26.02-.4.04M607.98 125.1l-2.71.27c.3.9.6 1.79.86 2.7l8.55-.83h.1a47.1 47.1 0 00-.76-2.72l-6.04.58M597.15 170.91c-.01.7.01 1.39.04 2.08l.54.05c1.78.17 3.56.4 5.34.6l1.63.16c0-.92-.02-1.86-.01-2.79l-.67-.06c-1.79-.18-3.57-.4-5.36-.6l-1.5-.15-.01.71"/>
	</g>
</svg>
